<?xml version="1.0" standalone="no"?>
<!DOCTYPE svg PUBLIC "-//W3C//DTD SVG 20010904//EN" "http://www.w3.org/TR/2001/REC-SVG-20010904/DTD/svg10.dtd">
<!-- Created using Krita: https://krita.org -->
<svg xmlns="http://www.w3.org/2000/svg" 
    xmlns:xlink="http://www.w3.org/1999/xlink"
    xmlns:krita="http://krita.org/namespaces/svg/krita"
    xmlns:sodipodi="http://sodipodi.sourceforge.net/DTD/sodipodi-0.dtd"
    width="841.92pt"
    height="595.2pt"
    viewBox="0 0 841.92 595.2">
<defs/>
<path id="shape0" transform="matrix(0.999999938472627 0 0 0.999999938472627 634.641166151827 282.215680035536)" fill="#fa6982" fill-rule="evenodd" stroke="#fa6982" stroke-width="9.6" stroke-linecap="square" stroke-linejoin="bevel" d="M207.279 6.88331L72.9631 0L4.12999 10.566L0 18.5849L37.8582 53.0015L83.9764 74.3397L167.264 105.315L207.279 106.691Z" sodipodi:nodetypes="ccccccccc"/><path id="shape1" transform="matrix(0.999999938472627 0 0 0.999999938472627 438.466851980784 139.349752208425)" fill="none" stroke="#3490ab" stroke-width="9.6" stroke-linecap="square" stroke-linejoin="bevel" d="M0 18.9664C92.0591 -27.0632 82.0017 25.1614 162.446 25.1614C175.842 25.1614 217.81 16.4084 229.214 10.7064C230.035 10.296 251.7 5.88809 252.617 5.88809C266.961 5.88809 274.992 16.3001 288.411 19.6547C308.639 24.7118 336.362 23.3516 357.244 21.0314C374.721 19.0894 386.753 3.13476 405.427 3.13476" sodipodi:nodetypes="ccccccc"/><path id="shape2" transform="matrix(0.999999938472627 0 0 0.999999938472627 5.15353272729747e-05 123.899566844869)" fill="#06242d" fill-rule="evenodd" stroke="#8addf9" stroke-width="9.6" stroke-linecap="square" stroke-linejoin="miter" stroke-miterlimit="2" d="M0 3.44165L434.337 0" sodipodi:nodetypes="cc"/><path id="shape3" transform="matrix(0.999999938472627 0 0 0.999999938472627 5.15353272729747e-05 122.522904991037)" fill="none" stroke="#8addf9" stroke-width="9.6" stroke-linecap="square" stroke-linejoin="miter" stroke-miterlimit="2" d="M435.714 0L435.714 66.7681L331.776 80.5347L195.486 124.588L134.225 175.077L46.1182 240.228L0 316.632L0 316.632L0 318.009" sodipodi:nodetypes="ccccccccc"/><text id="shape4" krita:useRichText="true" krita:textVersion="2" transform="matrix(0.999999938472627 0 0 0.999999938472627 49.5598782732752 207.914341817506)" fill="#000000" stroke-opacity="0" stroke="#000000" stroke-width="0" stroke-linecap="square" stroke-linejoin="bevel" font-size="36" font-size-adjust="0.438419" font-stretch="normal" font-weight="700" letter-spacing="0" word-spacing="0"><tspan x="0">Ice Shelf</tspan></text><path id="shape5" transform="matrix(0.999999938472627 0 0 0.999999938472627 604.024796848379 278.019546227049)" fill="none" stroke="#302300" stroke-width="9.6" stroke-linecap="square" stroke-linejoin="bevel" d="M0 0.63709C11.9972 -6.28316 37.6158 45.2099 60.2146 56.5093C116.159 84.4815 174.649 117.771 239.181 117.771" sodipodi:nodetypes="ccc"/><path id="shape6" transform="matrix(0.999999938472627 0 0 0.999999938472627 2.0650443160751 283.493246342755)" fill="#ffffff" fill-rule="evenodd" stroke="#298600" stroke-width="9.6" stroke-linecap="square" stroke-linejoin="bevel" d="M0 165.299C14.2039 193.706 77.2542 176.312 102.561 176.312C129.71 176.312 183.021 186.674 207.876 174.247C224.321 166.024 229.381 147.291 243.669 137.765C278.036 114.854 321.475 100.595 363.439 100.595C403.775 100.595 413.699 161.338 458.428 150.155C483.388 143.915 476.701 92.9605 485.273 75.8155C511.144 24.0748 522.869 22.3634 576.133 9.0474C582.213 7.52734 589.897 4.17197 594.79 0" sodipodi:nodetypes="ccccccccc"/><text id="shape7" krita:useRichText="true" krita:textVersion="2" transform="matrix(0.999999938472627 0 0 0.999999938472627 724.124186650901 342.138872566114)" fill="#000000" stroke="#fa6982" stroke-width="1" stroke-linecap="butt" stroke-linejoin="miter" stroke-miterlimit="2" font-size="36" font-size-adjust="0.438419" font-weight="700" letter-spacing="0"><tspan x="0">CDW</tspan></text><path id="shape8" transform="matrix(0.999999938472627 0 0 0.999999938472627 586.559973318491 268.39996349108)" fill="none" stroke="#298600" stroke-width="9.6" stroke-linecap="square" stroke-linejoin="miter" stroke-miterlimit="2" d="M0 0L41.28 0" sodipodi:nodetypes="cc"/><path id="shape9" transform="matrix(0.999999938472627 0 0 0.999999938472627 648.959964997551 268.799964155952)" fill="none" stroke="#ffffff" stroke-width="9.6" stroke-linecap="square" stroke-linejoin="miter" stroke-miterlimit="2" d="M0 0L192.96 0" sodipodi:nodetypes="cc"/><text id="shape10" krita:useRichText="true" krita:textVersion="2" transform="matrix(0.999999938472627 0 0 0.999999938472627 584.294355330815 253.905552714263)" fill="#0b7f00" stroke-opacity="0" stroke="#000000" stroke-width="0" stroke-linecap="square" stroke-linejoin="bevel" font-size="18" font-size-adjust="0.438419" font-style="italic" font-weight="700" letter-spacing="0"><tspan><tspan x="0">Z = Z</tspan><tspan baseline-shift="sub">hub</tspan></tspan></text>
</svg>
