<?xml version="1.0" standalone="no"?>
<!DOCTYPE svg PUBLIC "-//W3C//DTD SVG 20010904//EN" "http://www.w3.org/TR/2001/REC-SVG-20010904/DTD/svg10.dtd">
<!-- Created using Krita: https://krita.org -->
<svg xmlns="http://www.w3.org/2000/svg" 
    xmlns:xlink="http://www.w3.org/1999/xlink"
    xmlns:krita="http://krita.org/namespaces/svg/krita"
    xmlns:sodipodi="http://sodipodi.sourceforge.net/DTD/sodipodi-0.dtd"
    width="841.92pt"
    height="595.2pt"
    viewBox="0 0 841.92 595.2">
<defs>
  <marker id="lineMarker0" markerUnits="strokeWidth" refX="0" refY="0" markerWidth="3" markerHeight="3" orient="auto">
      <defs/>
   <g id="lineMarker0" fill="none">
     <g id="lineMarker01" fill="none">
      <g id="lineMarker01" fill="none">
       <g id="Arrow1Mstart" fill="none">
        <path id="path4148" transform="matrix(0.4 0 0 0.4 -1 -2)" fill="#000000" fill-rule="evenodd" stroke="#000000" stroke-width="2.8" stroke-linecap="butt" stroke-linejoin="miter" stroke-miterlimit="2" d="M12.5 5L17.5 0L0 5L17.5 10Z" sodipodi:nodetypes="ccccc"/>
       </g>
      </g>
     </g>
    </g>
  </marker>
  <marker id="lineMarker1" markerUnits="strokeWidth" refX="0" refY="0" markerWidth="3" markerHeight="3" orient="auto">
      <defs/>
   <g id="lineMarker1" fill="none">
     <g id="lineMarker11" fill="none">
      <g id="lineMarker11" fill="none">
       <g id="Arrow1Mend" fill="none">
        <path id="path4151" transform="matrix(-0.4 0 0 -0.4 1 2)" fill="#000000" fill-rule="evenodd" stroke="#000000" stroke-width="2.8" stroke-linecap="butt" stroke-linejoin="miter" stroke-miterlimit="2" d="M12.5 5L17.5 0L0 5L17.5 10Z" sodipodi:nodetypes="ccccc"/>
       </g>
      </g>
     </g>
    </g>
  </marker>
 </defs>
<path id="shape0" transform="matrix(0.999980256351712 0.00627079211710861 -0.00627079211710861 0.999980256351712 8.85466064155393 231.978297348134)" fill="#fa6982" fill-rule="evenodd" stroke="#fa6982" stroke-width="9.6" stroke-linecap="square" stroke-linejoin="bevel" d="M833.095 2.10922L601.544 0C555.18 0.195849 324.399 -2.10172 231.797 23.5679C162.971 55.5086 174.762 49.4036 132.179 84.6937C93.4697 106.375 83.5576 129.231 60.5691 147.144C46.7413 157.919 4.67325 206.818 0 216.025C35.7275 205.172 -18.2817 229.616 17.4458 218.763C183.613 168.284 454.221 102.356 602.471 34.1822L650.551 91.5731L789.338 150.463L833.575 152.355Z" sodipodi:nodetypes="cccccccccccc"/><path id="shape1" transform="matrix(0.999999917963504 0 0 0.999999917963504 438.466860166655 158.116620297382)" fill="none" stroke="#3490ab" stroke-width="9.6" stroke-linecap="square" stroke-linejoin="bevel" d="M0 4.82012C92.0591 -6.87784 82.0017 6.39451 162.446 6.39451C175.842 6.39451 217.81 4.17003 229.214 2.72092C230.035 2.61662 251.7 1.4964 252.617 1.4964C266.961 1.4964 274.992 4.1425 288.411 4.99504C308.639 6.28025 336.362 5.93457 357.244 5.34492C374.721 4.85138 386.753 0.796666 405.427 0.796666" sodipodi:nodetypes="ccccccc"/><path id="shape2" transform="matrix(0.999999917963504 0 0 0.999999917963504 6.871376899267e-05 123.899564303797)" fill="#06242d" fill-rule="evenodd" stroke="#8addf9" stroke-width="9.6" stroke-linecap="square" stroke-linejoin="miter" stroke-miterlimit="2" d="M0 3.44165L434.337 0" sodipodi:nodetypes="cc"/><path id="shape3" transform="matrix(0.999999917963504 0 0 0.999999917963504 6.871376899267e-05 122.522902478199)" fill="none" stroke="#8addf9" stroke-width="9.6" stroke-linecap="square" stroke-linejoin="miter" stroke-miterlimit="2" d="M435.714 0L435.714 66.7681L331.776 80.5347L195.486 124.588L134.225 175.077L46.1182 240.228L0 316.632L0 316.632L0 318.009" sodipodi:nodetypes="ccccccccc"/><text id="shape4" krita:useRichText="true" krita:textVersion="2" transform="matrix(0.999999917963504 0 0 0.999999917963504 49.5598944352883 207.914337553365)" fill="#000000" stroke-opacity="0" stroke="#000000" stroke-width="0" stroke-linecap="square" stroke-linejoin="bevel" font-size="36" font-size-adjust="0.438419" font-stretch="normal" font-weight="700" letter-spacing="0" word-spacing="0"><tspan x="0">Ice Shelf</tspan></text><path id="shape5" transform="matrix(0.999999917963504 0 0 0.999999917963504 604.024801638802 278.019540455402)" fill="none" stroke="#302300" stroke-width="9.6" stroke-linecap="square" stroke-linejoin="bevel" d="M0 0.63709C11.9972 -6.28316 37.6158 45.2099 60.2146 56.5093C116.159 84.4815 174.649 117.771 239.181 117.771" sodipodi:nodetypes="ccc"/><path id="shape6" transform="matrix(0.999999917963504 0 0 0.999999917963504 2.06506145216563 283.493240528557)" fill="#fa6982" fill-rule="evenodd" stroke="#029b14" stroke-width="9.6" stroke-linecap="square" stroke-linejoin="bevel" d="M0 165.299C14.2039 193.706 77.2542 176.312 102.561 176.312C129.71 176.312 183.021 186.674 207.876 174.247C224.321 166.024 229.381 147.291 243.669 137.765C278.036 114.854 321.475 100.595 363.439 100.595C403.775 100.595 413.699 161.338 458.428 150.155C483.388 143.915 476.701 92.9605 485.273 75.8155C511.144 24.0748 522.869 22.3634 576.133 9.0474C582.213 7.52734 589.897 4.17197 594.79 0" sodipodi:nodetypes="ccccccccc"/><path id="shape01" transform="matrix(0.999999938472627 0 0 0.999999938472627 608.236135503416 236.462694280221)" fill="#ffffff" fill-rule="evenodd" stroke="#96f06e" stroke-width="9.6" stroke-linecap="square" stroke-linejoin="miter" stroke-miterlimit="2" d="M0 0C2.22045e-16 10.4461 0 20.8923 0 31.3384" sodipodi:nodetypes="cc"/><text id="shape11" krita:useRichText="true" krita:textVersion="2" transform="matrix(0.999999938472627 0 0 0.999999938472627 618.221794412531 259.311641173532)" fill="#000000" stroke-opacity="0" stroke="#000000" stroke-width="0" stroke-linecap="square" stroke-linejoin="bevel" font-size="16" font-size-adjust="0" font-stretch="normal" font-weight="700" kerning="0" letter-spacing="0" word-spacing="0"><tspan><tspan x="0">H</tspan><tspan baseline-shift="sub">CDW</tspan></tspan></text><path id="shape011" transform="matrix(0.99999990976645 0 0 0.99999990976645 798.353982743878 171.88459585273)" fill="#ffffff" fill-rule="evenodd" stroke="#96f06e" stroke-width="9.6" stroke-linecap="square" stroke-linejoin="miter" stroke-miterlimit="2" d="M0 0C2.22045e-16 19.6267 0 39.2535 0 58.8802" sodipodi:nodetypes="cc"/><text id="shape02" krita:useRichText="true" krita:textVersion="2" transform="matrix(0.999999895984451 0 0 0.999999895984451 752.637194932819 204.795956107326)" fill="#000000" stroke-opacity="0" stroke="#000000" stroke-width="0" stroke-linecap="square" stroke-linejoin="bevel" font-size="16" font-size-adjust="0.438419" font-stretch="normal" font-weight="700" kerning="0" letter-spacing="0" word-spacing="0"><tspan><tspan x="0">H</tspan><tspan baseline-shift="sub">pyc</tspan></tspan></text><path id="shape21" transform="matrix(0.999999938472627 0 0 0.999999938472627 11.4126259892124 104.698843551784)" fill="#000000" fill-rule="evenodd" stroke="#000000" stroke-width="3.84" stroke-linecap="square" stroke-linejoin="miter" stroke-miterlimit="2" marker-start="url(#lineMarker0)" marker-end="url(#lineMarker1)" krita:marker-fill-method="auto" d="M0 2.74836L417.354 0" sodipodi:nodetypes="cc"/><text id="shape03" krita:useRichText="true" krita:textVersion="2" transform="matrix(0.999999895984451 0 0 0.999999895984451 197.092310780492 85.1401349052862)" fill="#000000" stroke-opacity="0" stroke="#000000" stroke-width="0" stroke-linecap="square" stroke-linejoin="bevel" font-size="28" font-size-adjust="0.438419" font-stretch="normal" font-weight="700" kerning="0" letter-spacing="0" word-spacing="0"><tspan x="0">L</tspan></text>
</svg>
