<?xml version="1.0" encoding="utf-8" standalone="no"?>
<!DOCTYPE svg PUBLIC "-//W3C//DTD SVG 1.1//EN"
  "http://www.w3.org/Graphics/SVG/1.1/DTD/svg11.dtd">
<svg xmlns:xlink="http://www.w3.org/1999/xlink" width="615.6pt" height="569.52pt" viewBox="0 0 615.6 569.52" xmlns="http://www.w3.org/2000/svg" version="1.1">
 <metadata>
  <rdf:RDF xmlns:dc="http://purl.org/dc/elements/1.1/" xmlns:cc="http://creativecommons.org/ns#" xmlns:rdf="http://www.w3.org/1999/02/22-rdf-syntax-ns#">
   <cc:Work>
    <dc:type rdf:resource="http://purl.org/dc/dcmitype/StillImage"/>
    <dc:date>2023-06-28T16:24:23.701993</dc:date>
    <dc:format>image/svg+xml</dc:format>
    <dc:creator>
     <cc:Agent>
      <dc:title>Matplotlib v3.5.1, https://matplotlib.org/</dc:title>
     </cc:Agent>
    </dc:creator>
   </cc:Work>
  </rdf:RDF>
 </metadata>
 <defs>
  <style type="text/css">*{stroke-linejoin: round; stroke-linecap: butt}</style>
 </defs>
 <g id="figure_1">
  <g id="patch_1">
   <path d="M 0 569.52 
L 615.6 569.52 
L 615.6 0 
L 0 0 
z
" style="fill: #ffffff"/>
  </g>
  <g id="axes_1">
   <g id="patch_2">
    <path d="M 76.95 506.8728 
L 554.04 506.8728 
L 554.04 68.3424 
L 76.95 68.3424 
z
" style="fill: #ffffff"/>
   </g>
   <g id="PathCollection_1">
    <defs>
     <path id="mdd0b33e070" d="M 0 3 
C 0.795609 3 1.55874 2.683901 2.12132 2.12132 
C 2.683901 1.55874 3 0.795609 3 0 
C 3 -0.795609 2.683901 -1.55874 2.12132 -2.12132 
C 1.55874 -2.683901 0.795609 -3 0 -3 
C -0.795609 -3 -1.55874 -2.683901 -2.12132 -2.12132 
C -2.683901 -1.55874 -3 -0.795609 -3 0 
C -3 0.795609 -2.683901 1.55874 -2.12132 2.12132 
C -1.55874 2.683901 -0.795609 3 0 3 
z
" style="stroke: #1f77b4"/>
    </defs>
    <g clip-path="url(#p3ccf24adfb)">
     <use xlink:href="#mdd0b33e070" x="110.210052" y="474.899412" style="fill: #1f77b4; stroke: #1f77b4"/>
     <use xlink:href="#mdd0b33e070" x="116.422209" y="472.223815" style="fill: #1f77b4; stroke: #1f77b4"/>
     <use xlink:href="#mdd0b33e070" x="103.821182" y="469.548217" style="fill: #1f77b4; stroke: #1f77b4"/>
     <use xlink:href="#mdd0b33e070" x="107.259573" y="470.886016" style="fill: #1f77b4; stroke: #1f77b4"/>
     <use xlink:href="#mdd0b33e070" x="114.097888" y="472.223815" style="fill: #1f77b4; stroke: #1f77b4"/>
     <use xlink:href="#mdd0b33e070" x="112.643557" y="464.197023" style="fill: #1f77b4; stroke: #1f77b4"/>
     <use xlink:href="#mdd0b33e070" x="129.958973" y="420.049667" style="fill: #1f77b4; stroke: #1f77b4"/>
     <use xlink:href="#mdd0b33e070" x="109.983711" y="434.765452" style="fill: #1f77b4; stroke: #1f77b4"/>
     <use xlink:href="#mdd0b33e070" x="103.046063" y="441.454446" style="fill: #1f77b4; stroke: #1f77b4"/>
     <use xlink:href="#mdd0b33e070" x="124.365818" y="428.076459" style="fill: #1f77b4; stroke: #1f77b4"/>
     <use xlink:href="#mdd0b33e070" x="173.127214" y="409.347278" style="fill: #1f77b4; stroke: #1f77b4"/>
     <use xlink:href="#mdd0b33e070" x="148.521183" y="464.197023" style="fill: #1f77b4; stroke: #1f77b4"/>
     <use xlink:href="#mdd0b33e070" x="237.72786" y="290.283197" style="fill: #1f77b4; stroke: #1f77b4"/>
     <use xlink:href="#mdd0b33e070" x="433.101056" y="120.382768" style="fill: #1f77b4; stroke: #1f77b4"/>
     <use xlink:href="#mdd0b33e070" x="265.582644" y="373.226714" style="fill: #1f77b4; stroke: #1f77b4"/>
     <use xlink:href="#mdd0b33e070" x="228.851746" y="405.333882" style="fill: #1f77b4; stroke: #1f77b4"/>
     <use xlink:href="#mdd0b33e070" x="169.231759" y="421.387466" style="fill: #1f77b4; stroke: #1f77b4"/>
     <use xlink:href="#mdd0b33e070" x="372.454232" y="204.664083" style="fill: #1f77b4; stroke: #1f77b4"/>
     <use xlink:href="#mdd0b33e070" x="128.02825" y="461.521426" style="fill: #1f77b4; stroke: #1f77b4"/>
     <use xlink:href="#mdd0b33e070" x="102.395497" y="457.50803" style="fill: #1f77b4; stroke: #1f77b4"/>
     <use xlink:href="#mdd0b33e070" x="102.459124" y="433.427654" style="fill: #1f77b4; stroke: #1f77b4"/>
     <use xlink:href="#mdd0b33e070" x="111.375074" y="473.561613" style="fill: #1f77b4; stroke: #1f77b4"/>
     <use xlink:href="#mdd0b33e070" x="105.210678" y="473.561613" style="fill: #1f77b4; stroke: #1f77b4"/>
     <use xlink:href="#mdd0b33e070" x="185.130112" y="452.156835" style="fill: #1f77b4; stroke: #1f77b4"/>
     <use xlink:href="#mdd0b33e070" x="111.611947" y="456.170231" style="fill: #1f77b4; stroke: #1f77b4"/>
     <use xlink:href="#mdd0b33e070" x="119.315526" y="462.859224" style="fill: #1f77b4; stroke: #1f77b4"/>
     <use xlink:href="#mdd0b33e070" x="106.228073" y="452.156835" style="fill: #1f77b4; stroke: #1f77b4"/>
     <use xlink:href="#mdd0b33e070" x="245.776434" y="460.183627" style="fill: #1f77b4; stroke: #1f77b4"/>
     <use xlink:href="#mdd0b33e070" x="199.298248" y="410.685077" style="fill: #1f77b4; stroke: #1f77b4"/>
     <use xlink:href="#mdd0b33e070" x="270.215866" y="323.728164" style="fill: #1f77b4; stroke: #1f77b4"/>
     <use xlink:href="#mdd0b33e070" x="130.43757" y="453.494634" style="fill: #1f77b4; stroke: #1f77b4"/>
     <use xlink:href="#mdd0b33e070" x="123.125295" y="458.845828" style="fill: #1f77b4; stroke: #1f77b4"/>
     <use xlink:href="#mdd0b33e070" x="120.479114" y="457.50803" style="fill: #1f77b4; stroke: #1f77b4"/>
     <use xlink:href="#mdd0b33e070" x="111.312275" y="464.197023" style="fill: #1f77b4; stroke: #1f77b4"/>
     <use xlink:href="#mdd0b33e070" x="132.187288" y="466.87262" style="fill: #1f77b4; stroke: #1f77b4"/>
     <use xlink:href="#mdd0b33e070" x="117.497846" y="466.87262" style="fill: #1f77b4; stroke: #1f77b4"/>
     <use xlink:href="#mdd0b33e070" x="123.962806" y="464.197023" style="fill: #1f77b4; stroke: #1f77b4"/>
     <use xlink:href="#mdd0b33e070" x="110.84053" y="462.859224" style="fill: #1f77b4; stroke: #1f77b4"/>
     <use xlink:href="#mdd0b33e070" x="143.55337" y="461.521426" style="fill: #1f77b4; stroke: #1f77b4"/>
     <use xlink:href="#mdd0b33e070" x="106.877021" y="464.197023" style="fill: #1f77b4; stroke: #1f77b4"/>
     <use xlink:href="#mdd0b33e070" x="119.362032" y="464.197023" style="fill: #1f77b4; stroke: #1f77b4"/>
     <use xlink:href="#mdd0b33e070" x="208.355263" y="299.647788" style="fill: #1f77b4; stroke: #1f77b4"/>
     <use xlink:href="#mdd0b33e070" x="249.791443" y="378.577909" style="fill: #1f77b4; stroke: #1f77b4"/>
     <use xlink:href="#mdd0b33e070" x="108.816471" y="446.80564" style="fill: #1f77b4; stroke: #1f77b4"/>
    </g>
   </g>
   <g id="matplotlib.axis_1">
    <g id="xtick_1">
     <g id="line2d_1">
      <defs>
       <path id="maec6c4c4db" d="M 0 0 
L 0 3.5 
" style="stroke: #000000; stroke-width: 0.8"/>
      </defs>
      <g>
       <use xlink:href="#maec6c4c4db" x="98.635909" y="506.8728" style="stroke: #000000; stroke-width: 0.8"/>
      </g>
     </g>
     <g id="text_1">
      <!-- 0 -->
      <g transform="translate(94.818409 522.990925)scale(0.12 -0.12)">
       <defs>
        <path id="DejaVuSans-30" d="M 2034 4250 
Q 1547 4250 1301 3770 
Q 1056 3291 1056 2328 
Q 1056 1369 1301 889 
Q 1547 409 2034 409 
Q 2525 409 2770 889 
Q 3016 1369 3016 2328 
Q 3016 3291 2770 3770 
Q 2525 4250 2034 4250 
z
M 2034 4750 
Q 2819 4750 3233 4129 
Q 3647 3509 3647 2328 
Q 3647 1150 3233 529 
Q 2819 -91 2034 -91 
Q 1250 -91 836 529 
Q 422 1150 422 2328 
Q 422 3509 836 4129 
Q 1250 4750 2034 4750 
z
" transform="scale(0.015625)"/>
       </defs>
       <use xlink:href="#DejaVuSans-30"/>
      </g>
     </g>
    </g>
    <g id="xtick_2">
     <g id="line2d_2">
      <g>
       <use xlink:href="#maec6c4c4db" x="173.414906" y="506.8728" style="stroke: #000000; stroke-width: 0.8"/>
      </g>
     </g>
     <g id="text_2">
      <!-- 5 -->
      <g transform="translate(169.597406 522.990925)scale(0.12 -0.12)">
       <defs>
        <path id="DejaVuSans-35" d="M 691 4666 
L 3169 4666 
L 3169 4134 
L 1269 4134 
L 1269 2991 
Q 1406 3038 1543 3061 
Q 1681 3084 1819 3084 
Q 2600 3084 3056 2656 
Q 3513 2228 3513 1497 
Q 3513 744 3044 326 
Q 2575 -91 1722 -91 
Q 1428 -91 1123 -41 
Q 819 9 494 109 
L 494 744 
Q 775 591 1075 516 
Q 1375 441 1709 441 
Q 2250 441 2565 725 
Q 2881 1009 2881 1497 
Q 2881 1984 2565 2268 
Q 2250 2553 1709 2553 
Q 1456 2553 1204 2497 
Q 953 2441 691 2322 
L 691 4666 
z
" transform="scale(0.015625)"/>
       </defs>
       <use xlink:href="#DejaVuSans-35"/>
      </g>
     </g>
    </g>
    <g id="xtick_3">
     <g id="line2d_3">
      <g>
       <use xlink:href="#maec6c4c4db" x="248.193903" y="506.8728" style="stroke: #000000; stroke-width: 0.8"/>
      </g>
     </g>
     <g id="text_3">
      <!-- 10 -->
      <g transform="translate(240.558903 522.990925)scale(0.12 -0.12)">
       <defs>
        <path id="DejaVuSans-31" d="M 794 531 
L 1825 531 
L 1825 4091 
L 703 3866 
L 703 4441 
L 1819 4666 
L 2450 4666 
L 2450 531 
L 3481 531 
L 3481 0 
L 794 0 
L 794 531 
z
" transform="scale(0.015625)"/>
       </defs>
       <use xlink:href="#DejaVuSans-31"/>
       <use xlink:href="#DejaVuSans-30" x="63.623047"/>
      </g>
     </g>
    </g>
    <g id="xtick_4">
     <g id="line2d_4">
      <g>
       <use xlink:href="#maec6c4c4db" x="322.9729" y="506.8728" style="stroke: #000000; stroke-width: 0.8"/>
      </g>
     </g>
     <g id="text_4">
      <!-- 15 -->
      <g transform="translate(315.3379 522.990925)scale(0.12 -0.12)">
       <use xlink:href="#DejaVuSans-31"/>
       <use xlink:href="#DejaVuSans-35" x="63.623047"/>
      </g>
     </g>
    </g>
    <g id="xtick_5">
     <g id="line2d_5">
      <g>
       <use xlink:href="#maec6c4c4db" x="397.751897" y="506.8728" style="stroke: #000000; stroke-width: 0.8"/>
      </g>
     </g>
     <g id="text_5">
      <!-- 20 -->
      <g transform="translate(390.116897 522.990925)scale(0.12 -0.12)">
       <defs>
        <path id="DejaVuSans-32" d="M 1228 531 
L 3431 531 
L 3431 0 
L 469 0 
L 469 531 
Q 828 903 1448 1529 
Q 2069 2156 2228 2338 
Q 2531 2678 2651 2914 
Q 2772 3150 2772 3378 
Q 2772 3750 2511 3984 
Q 2250 4219 1831 4219 
Q 1534 4219 1204 4116 
Q 875 4013 500 3803 
L 500 4441 
Q 881 4594 1212 4672 
Q 1544 4750 1819 4750 
Q 2544 4750 2975 4387 
Q 3406 4025 3406 3419 
Q 3406 3131 3298 2873 
Q 3191 2616 2906 2266 
Q 2828 2175 2409 1742 
Q 1991 1309 1228 531 
z
" transform="scale(0.015625)"/>
       </defs>
       <use xlink:href="#DejaVuSans-32"/>
       <use xlink:href="#DejaVuSans-30" x="63.623047"/>
      </g>
     </g>
    </g>
    <g id="xtick_6">
     <g id="line2d_6">
      <g>
       <use xlink:href="#maec6c4c4db" x="472.530893" y="506.8728" style="stroke: #000000; stroke-width: 0.8"/>
      </g>
     </g>
     <g id="text_6">
      <!-- 25 -->
      <g transform="translate(464.895893 522.990925)scale(0.12 -0.12)">
       <use xlink:href="#DejaVuSans-32"/>
       <use xlink:href="#DejaVuSans-35" x="63.623047"/>
      </g>
     </g>
    </g>
    <g id="xtick_7">
     <g id="line2d_7">
      <g>
       <use xlink:href="#maec6c4c4db" x="547.30989" y="506.8728" style="stroke: #000000; stroke-width: 0.8"/>
      </g>
     </g>
     <g id="text_7">
      <!-- 30 -->
      <g transform="translate(539.67489 522.990925)scale(0.12 -0.12)">
       <defs>
        <path id="DejaVuSans-33" d="M 2597 2516 
Q 3050 2419 3304 2112 
Q 3559 1806 3559 1356 
Q 3559 666 3084 287 
Q 2609 -91 1734 -91 
Q 1441 -91 1130 -33 
Q 819 25 488 141 
L 488 750 
Q 750 597 1062 519 
Q 1375 441 1716 441 
Q 2309 441 2620 675 
Q 2931 909 2931 1356 
Q 2931 1769 2642 2001 
Q 2353 2234 1838 2234 
L 1294 2234 
L 1294 2753 
L 1863 2753 
Q 2328 2753 2575 2939 
Q 2822 3125 2822 3475 
Q 2822 3834 2567 4026 
Q 2313 4219 1838 4219 
Q 1578 4219 1281 4162 
Q 984 4106 628 3988 
L 628 4550 
Q 988 4650 1302 4700 
Q 1616 4750 1894 4750 
Q 2613 4750 3031 4423 
Q 3450 4097 3450 3541 
Q 3450 3153 3228 2886 
Q 3006 2619 2597 2516 
z
" transform="scale(0.015625)"/>
       </defs>
       <use xlink:href="#DejaVuSans-33"/>
       <use xlink:href="#DejaVuSans-30" x="63.623047"/>
      </g>
     </g>
    </g>
    <g id="text_8">
     <!-- $(T_{CDW}-T_{f})*(H_{PYC}-H_{HUB})*\frac{g'}{f}*S_{ice}$ -->
     <g transform="translate(164.475 549.82655)scale(0.18 -0.18)">
      <defs>
       <path id="DejaVuSans-28" d="M 1984 4856 
Q 1566 4138 1362 3434 
Q 1159 2731 1159 2009 
Q 1159 1288 1364 580 
Q 1569 -128 1984 -844 
L 1484 -844 
Q 1016 -109 783 600 
Q 550 1309 550 2009 
Q 550 2706 781 3412 
Q 1013 4119 1484 4856 
L 1984 4856 
z
" transform="scale(0.015625)"/>
       <path id="DejaVuSans-Oblique-54" d="M 378 4666 
L 4325 4666 
L 4225 4134 
L 2559 4134 
L 1759 0 
L 1125 0 
L 1925 4134 
L 275 4134 
L 378 4666 
z
" transform="scale(0.015625)"/>
       <path id="DejaVuSans-Oblique-43" d="M 4447 4306 
L 4319 3641 
Q 4019 3944 3683 4091 
Q 3347 4238 2956 4238 
Q 2422 4238 2017 3981 
Q 1613 3725 1319 3200 
Q 1131 2863 1032 2486 
Q 934 2109 934 1728 
Q 934 1091 1264 756 
Q 1594 422 2222 422 
Q 2656 422 3056 561 
Q 3456 700 3834 978 
L 3688 231 
Q 3316 72 2936 -9 
Q 2556 -91 2175 -91 
Q 1278 -91 773 396 
Q 269 884 269 1753 
Q 269 2309 461 2846 
Q 653 3384 1013 3828 
Q 1394 4300 1883 4525 
Q 2372 4750 3022 4750 
Q 3422 4750 3780 4639 
Q 4138 4528 4447 4306 
z
" transform="scale(0.015625)"/>
       <path id="DejaVuSans-Oblique-44" d="M 1081 4666 
L 2438 4666 
Q 3519 4666 4070 4208 
Q 4622 3750 4622 2847 
Q 4622 2250 4412 1698 
Q 4203 1147 3834 769 
Q 3463 381 2891 190 
Q 2319 0 1538 0 
L 172 0 
L 1081 4666 
z
M 1613 4147 
L 909 519 
L 1734 519 
Q 2794 519 3375 1128 
Q 3956 1738 3956 2847 
Q 3956 3519 3581 3833 
Q 3206 4147 2406 4147 
L 1613 4147 
z
" transform="scale(0.015625)"/>
       <path id="DejaVuSans-Oblique-57" d="M 616 4666 
L 1228 4666 
L 1453 697 
L 3213 4666 
L 3916 4666 
L 4147 697 
L 5888 4666 
L 6528 4666 
L 4453 0 
L 3659 0 
L 3444 3891 
L 1697 0 
L 903 0 
L 616 4666 
z
" transform="scale(0.015625)"/>
       <path id="DejaVuSans-2212" d="M 678 2272 
L 4684 2272 
L 4684 1741 
L 678 1741 
L 678 2272 
z
" transform="scale(0.015625)"/>
       <path id="DejaVuSans-Oblique-66" d="M 3059 4863 
L 2969 4384 
L 2419 4384 
Q 2106 4384 1964 4261 
Q 1822 4138 1753 3809 
L 1691 3500 
L 2638 3500 
L 2553 3053 
L 1606 3053 
L 1013 0 
L 434 0 
L 1031 3053 
L 481 3053 
L 563 3500 
L 1113 3500 
L 1159 3744 
Q 1278 4363 1576 4613 
Q 1875 4863 2516 4863 
L 3059 4863 
z
" transform="scale(0.015625)"/>
       <path id="DejaVuSans-29" d="M 513 4856 
L 1013 4856 
Q 1481 4119 1714 3412 
Q 1947 2706 1947 2009 
Q 1947 1309 1714 600 
Q 1481 -109 1013 -844 
L 513 -844 
Q 928 -128 1133 580 
Q 1338 1288 1338 2009 
Q 1338 2731 1133 3434 
Q 928 4138 513 4856 
z
" transform="scale(0.015625)"/>
       <path id="DejaVuSans-2a" d="M 3009 3897 
L 1888 3291 
L 3009 2681 
L 2828 2375 
L 1778 3009 
L 1778 1831 
L 1422 1831 
L 1422 3009 
L 372 2375 
L 191 2681 
L 1313 3291 
L 191 3897 
L 372 4206 
L 1422 3572 
L 1422 4750 
L 1778 4750 
L 1778 3572 
L 2828 4206 
L 3009 3897 
z
" transform="scale(0.015625)"/>
       <path id="DejaVuSans-Oblique-48" d="M 1081 4666 
L 1716 4666 
L 1344 2753 
L 3634 2753 
L 4006 4666 
L 4641 4666 
L 3731 0 
L 3097 0 
L 3531 2222 
L 1241 2222 
L 806 0 
L 172 0 
L 1081 4666 
z
" transform="scale(0.015625)"/>
       <path id="DejaVuSans-Oblique-50" d="M 1081 4666 
L 2541 4666 
Q 3178 4666 3512 4369 
Q 3847 4072 3847 3500 
Q 3847 2731 3353 2303 
Q 2859 1875 1966 1875 
L 1172 1875 
L 806 0 
L 172 0 
L 1081 4666 
z
M 1613 4147 
L 1275 2394 
L 2069 2394 
Q 2606 2394 2893 2669 
Q 3181 2944 3181 3456 
Q 3181 3784 2986 3965 
Q 2791 4147 2438 4147 
L 1613 4147 
z
" transform="scale(0.015625)"/>
       <path id="DejaVuSans-Oblique-59" d="M 403 4666 
L 1081 4666 
L 1953 2747 
L 3616 4666 
L 4325 4666 
L 2209 2222 
L 1778 0 
L 1147 0 
L 1575 2222 
L 403 4666 
z
" transform="scale(0.015625)"/>
       <path id="DejaVuSans-Oblique-55" d="M 991 4666 
L 1625 4666 
L 1075 1831 
Q 1041 1641 1027 1517 
Q 1013 1394 1013 1300 
Q 1013 869 1253 645 
Q 1494 422 1959 422 
Q 2563 422 2898 753 
Q 3234 1084 3378 1831 
L 3928 4666 
L 4563 4666 
L 4000 1753 
Q 3816 809 3300 359 
Q 2784 -91 1888 -91 
Q 1188 -91 780 261 
Q 372 613 372 1216 
Q 372 1325 387 1461 
Q 403 1597 434 1753 
L 991 4666 
z
" transform="scale(0.015625)"/>
       <path id="DejaVuSans-Oblique-42" d="M 1081 4666 
L 2694 4666 
Q 3350 4666 3675 4422 
Q 4000 4178 4000 3688 
Q 4000 3238 3720 2911 
Q 3441 2584 2988 2516 
Q 3375 2428 3569 2181 
Q 3763 1934 3763 1522 
Q 3763 819 3242 409 
Q 2722 0 1819 0 
L 172 0 
L 1081 4666 
z
M 1234 2228 
L 903 519 
L 1919 519 
Q 2491 519 2800 781 
Q 3109 1044 3109 1522 
Q 3109 1891 2904 2059 
Q 2700 2228 2247 2228 
L 1234 2228 
z
M 1606 4147 
L 1331 2741 
L 2272 2741 
Q 2775 2741 3058 2959 
Q 3341 3178 3341 3566 
Q 3341 3869 3150 4008 
Q 2959 4147 2541 4147 
L 1606 4147 
z
" transform="scale(0.015625)"/>
       <path id="DejaVuSans-Oblique-67" d="M 3816 3500 
L 3219 434 
Q 3047 -456 2561 -893 
Q 2075 -1331 1253 -1331 
Q 950 -1331 690 -1286 
Q 431 -1241 206 -1147 
L 313 -588 
Q 525 -725 762 -790 
Q 1000 -856 1269 -856 
Q 1816 -856 2167 -557 
Q 2519 -259 2631 300 
L 2681 563 
Q 2441 288 2122 144 
Q 1803 0 1434 0 
Q 903 0 598 351 
Q 294 703 294 1319 
Q 294 1803 478 2267 
Q 663 2731 997 3091 
Q 1219 3328 1514 3456 
Q 1809 3584 2131 3584 
Q 2484 3584 2746 3420 
Q 3009 3256 3138 2956 
L 3238 3500 
L 3816 3500 
z
M 2950 2216 
Q 2950 2641 2750 2872 
Q 2550 3103 2181 3103 
Q 1953 3103 1747 3012 
Q 1541 2922 1394 2759 
Q 1156 2491 1023 2127 
Q 891 1763 891 1375 
Q 891 944 1092 712 
Q 1294 481 1672 481 
Q 2219 481 2584 976 
Q 2950 1472 2950 2216 
z
" transform="scale(0.015625)"/>
       <path id="Cmsy10-30" d="M 225 347 
Q 184 359 184 409 
L 966 3316 
Q 1003 3434 1093 3506 
Q 1184 3578 1300 3578 
Q 1450 3578 1564 3479 
Q 1678 3381 1678 3231 
Q 1678 3166 1644 3084 
L 488 319 
Q 466 275 428 275 
Q 394 275 320 306 
Q 247 338 225 347 
z
" transform="scale(0.015625)"/>
       <path id="DejaVuSans-Oblique-53" d="M 3859 4513 
L 3738 3897 
Q 3422 4066 3111 4152 
Q 2800 4238 2509 4238 
Q 1944 4238 1609 3991 
Q 1275 3744 1275 3334 
Q 1275 3109 1398 2989 
Q 1522 2869 2034 2731 
L 2413 2638 
Q 3053 2472 3303 2217 
Q 3553 1963 3553 1503 
Q 3553 797 2998 353 
Q 2444 -91 1538 -91 
Q 1166 -91 791 -17 
Q 416 56 38 206 
L 166 856 
Q 513 641 861 531 
Q 1209 422 1556 422 
Q 2147 422 2503 684 
Q 2859 947 2859 1369 
Q 2859 1650 2717 1795 
Q 2575 1941 2106 2059 
L 1728 2156 
Q 1081 2325 845 2545 
Q 609 2766 609 3163 
Q 609 3859 1145 4304 
Q 1681 4750 2541 4750 
Q 2875 4750 3203 4690 
Q 3531 4631 3859 4513 
z
" transform="scale(0.015625)"/>
       <path id="DejaVuSans-Oblique-69" d="M 1172 4863 
L 1747 4863 
L 1606 4134 
L 1031 4134 
L 1172 4863 
z
M 909 3500 
L 1484 3500 
L 800 0 
L 225 0 
L 909 3500 
z
" transform="scale(0.015625)"/>
       <path id="DejaVuSans-Oblique-63" d="M 3431 3366 
L 3316 2797 
Q 3109 2947 2876 3022 
Q 2644 3097 2394 3097 
Q 2119 3097 1870 3000 
Q 1622 2903 1453 2725 
Q 1184 2453 1037 2087 
Q 891 1722 891 1331 
Q 891 859 1127 628 
Q 1363 397 1844 397 
Q 2081 397 2348 469 
Q 2616 541 2906 684 
L 2797 116 
Q 2547 13 2283 -39 
Q 2019 -91 1741 -91 
Q 1044 -91 669 257 
Q 294 606 294 1253 
Q 294 1797 489 2255 
Q 684 2713 1069 3078 
Q 1331 3328 1684 3456 
Q 2038 3584 2456 3584 
Q 2700 3584 2940 3529 
Q 3181 3475 3431 3366 
z
" transform="scale(0.015625)"/>
       <path id="DejaVuSans-Oblique-65" d="M 3078 2063 
Q 3088 2113 3092 2166 
Q 3097 2219 3097 2272 
Q 3097 2653 2873 2875 
Q 2650 3097 2266 3097 
Q 1838 3097 1509 2826 
Q 1181 2556 1013 2059 
L 3078 2063 
z
M 3578 1613 
L 903 1613 
Q 884 1494 878 1425 
Q 872 1356 872 1306 
Q 872 872 1139 634 
Q 1406 397 1894 397 
Q 2269 397 2603 481 
Q 2938 566 3225 728 
L 3116 159 
Q 2806 34 2476 -28 
Q 2147 -91 1806 -91 
Q 1078 -91 686 257 
Q 294 606 294 1247 
Q 294 1794 489 2264 
Q 684 2734 1063 3103 
Q 1306 3334 1642 3459 
Q 1978 3584 2356 3584 
Q 2950 3584 3301 3228 
Q 3653 2872 3653 2272 
Q 3653 2128 3634 1964 
Q 3616 1800 3578 1613 
z
" transform="scale(0.015625)"/>
      </defs>
      <use xlink:href="#DejaVuSans-28" transform="translate(0 0.454375)"/>
      <use xlink:href="#DejaVuSans-Oblique-54" transform="translate(39.013672 0.454375)"/>
      <use xlink:href="#DejaVuSans-Oblique-43" transform="translate(100.097656 -15.951875)scale(0.7)"/>
      <use xlink:href="#DejaVuSans-Oblique-44" transform="translate(148.974609 -15.951875)scale(0.7)"/>
      <use xlink:href="#DejaVuSans-Oblique-57" transform="translate(202.875977 -15.951875)scale(0.7)"/>
      <use xlink:href="#DejaVuSans-2212" transform="translate(294.306641 0.454375)"/>
      <use xlink:href="#DejaVuSans-Oblique-54" transform="translate(397.578125 0.454375)"/>
      <use xlink:href="#DejaVuSans-Oblique-66" transform="translate(458.662109 -15.951875)scale(0.7)"/>
      <use xlink:href="#DejaVuSans-29" transform="translate(486.040039 0.454375)"/>
      <use xlink:href="#DejaVuSans-2a" transform="translate(544.536133 0.454375)"/>
      <use xlink:href="#DejaVuSans-28" transform="translate(614.018555 0.454375)"/>
      <use xlink:href="#DejaVuSans-Oblique-48" transform="translate(653.032227 0.454375)"/>
      <use xlink:href="#DejaVuSans-Oblique-50" transform="translate(728.227539 -15.951875)scale(0.7)"/>
      <use xlink:href="#DejaVuSans-Oblique-59" transform="translate(770.439453 -15.951875)scale(0.7)"/>
      <use xlink:href="#DejaVuSans-Oblique-43" transform="translate(813.198242 -15.951875)scale(0.7)"/>
      <use xlink:href="#DejaVuSans-2212" transform="translate(884.291992 0.454375)"/>
      <use xlink:href="#DejaVuSans-Oblique-48" transform="translate(987.563477 0.454375)"/>
      <use xlink:href="#DejaVuSans-Oblique-48" transform="translate(1062.758789 -15.951875)scale(0.7)"/>
      <use xlink:href="#DejaVuSans-Oblique-55" transform="translate(1115.395508 -15.951875)scale(0.7)"/>
      <use xlink:href="#DejaVuSans-Oblique-42" transform="translate(1166.630859 -15.951875)scale(0.7)"/>
      <use xlink:href="#DejaVuSans-29" transform="translate(1217.387695 0.454375)"/>
      <use xlink:href="#DejaVuSans-2a" transform="translate(1275.883789 0.454375)"/>
      <use xlink:href="#DejaVuSans-Oblique-67" transform="translate(1345.366211 58.809062)scale(0.7)"/>
      <use xlink:href="#Cmsy10-30" transform="translate(1393.054732 85.605937)scale(0.49)"/>
      <use xlink:href="#DejaVuSans-Oblique-66" transform="translate(1364.366211 -40.187813)scale(0.7)"/>
      <use xlink:href="#DejaVuSans-2a" transform="translate(1440.421431 0.454375)"/>
      <use xlink:href="#DejaVuSans-Oblique-53" transform="translate(1509.903853 0.454375)"/>
      <use xlink:href="#DejaVuSans-Oblique-69" transform="translate(1573.380415 -15.951875)scale(0.7)"/>
      <use xlink:href="#DejaVuSans-Oblique-63" transform="translate(1592.828658 -15.951875)scale(0.7)"/>
      <use xlink:href="#DejaVuSans-Oblique-65" transform="translate(1631.314986 -15.951875)scale(0.7)"/>
      <path d="M 1345.366211 19.25125 
L 1345.366211 25.50125 
L 1408.439009 25.50125 
L 1408.439009 19.25125 
L 1345.366211 19.25125 
z
"/>
     </g>
    </g>
   </g>
   <g id="matplotlib.axis_2">
    <g id="ytick_1">
     <g id="line2d_8">
      <defs>
       <path id="m87a04b801e" d="M 0 0 
L -3.5 0 
" style="stroke: #000000; stroke-width: 0.8"/>
      </defs>
      <g>
       <use xlink:href="#m87a04b801e" x="76.95" y="477.575009" style="stroke: #000000; stroke-width: 0.8"/>
      </g>
     </g>
     <g id="text_9">
      <!-- 0 -->
      <g transform="translate(62.315 482.134072)scale(0.12 -0.12)">
       <use xlink:href="#DejaVuSans-30"/>
      </g>
     </g>
    </g>
    <g id="ytick_2">
     <g id="line2d_9">
      <g>
       <use xlink:href="#m87a04b801e" x="76.95" y="410.685077" style="stroke: #000000; stroke-width: 0.8"/>
      </g>
     </g>
     <g id="text_10">
      <!-- 5 -->
      <g transform="translate(62.315 415.244139)scale(0.12 -0.12)">
       <use xlink:href="#DejaVuSans-35"/>
      </g>
     </g>
    </g>
    <g id="ytick_3">
     <g id="line2d_10">
      <g>
       <use xlink:href="#m87a04b801e" x="76.95" y="343.795144" style="stroke: #000000; stroke-width: 0.8"/>
      </g>
     </g>
     <g id="text_11">
      <!-- 10 -->
      <g transform="translate(54.68 348.354206)scale(0.12 -0.12)">
       <use xlink:href="#DejaVuSans-31"/>
       <use xlink:href="#DejaVuSans-30" x="63.623047"/>
      </g>
     </g>
    </g>
    <g id="ytick_4">
     <g id="line2d_11">
      <g>
       <use xlink:href="#m87a04b801e" x="76.95" y="276.905211" style="stroke: #000000; stroke-width: 0.8"/>
      </g>
     </g>
     <g id="text_12">
      <!-- 15 -->
      <g transform="translate(54.68 281.464273)scale(0.12 -0.12)">
       <use xlink:href="#DejaVuSans-31"/>
       <use xlink:href="#DejaVuSans-35" x="63.623047"/>
      </g>
     </g>
    </g>
    <g id="ytick_5">
     <g id="line2d_12">
      <g>
       <use xlink:href="#m87a04b801e" x="76.95" y="210.015278" style="stroke: #000000; stroke-width: 0.8"/>
      </g>
     </g>
     <g id="text_13">
      <!-- 20 -->
      <g transform="translate(54.68 214.57434)scale(0.12 -0.12)">
       <use xlink:href="#DejaVuSans-32"/>
       <use xlink:href="#DejaVuSans-30" x="63.623047"/>
      </g>
     </g>
    </g>
    <g id="ytick_6">
     <g id="line2d_13">
      <g>
       <use xlink:href="#m87a04b801e" x="76.95" y="143.125345" style="stroke: #000000; stroke-width: 0.8"/>
      </g>
     </g>
     <g id="text_14">
      <!-- 25 -->
      <g transform="translate(54.68 147.684407)scale(0.12 -0.12)">
       <use xlink:href="#DejaVuSans-32"/>
       <use xlink:href="#DejaVuSans-35" x="63.623047"/>
      </g>
     </g>
    </g>
    <g id="ytick_7">
     <g id="line2d_14">
      <g>
       <use xlink:href="#m87a04b801e" x="76.95" y="76.235412" style="stroke: #000000; stroke-width: 0.8"/>
      </g>
     </g>
     <g id="text_15">
      <!-- 30 -->
      <g transform="translate(54.68 80.794475)scale(0.12 -0.12)">
       <use xlink:href="#DejaVuSans-33"/>
       <use xlink:href="#DejaVuSans-30" x="63.623047"/>
      </g>
     </g>
    </g>
    <g id="text_16">
     <!-- $\dot{m}_{obs} (m/yr)$ -->
     <g transform="translate(46.9 335.7576)rotate(-90)scale(0.18 -0.18)">
      <defs>
       <path id="DejaVuSans-307" d="M -1894 4863 
L -1319 4863 
L -1319 4134 
L -1894 4134 
L -1894 4863 
z
M -1600 3584 
L -1600 3584 
z
" transform="scale(0.015625)"/>
       <path id="DejaVuSans-Oblique-6d" d="M 5747 2113 
L 5338 0 
L 4763 0 
L 5166 2094 
Q 5191 2228 5203 2325 
Q 5216 2422 5216 2491 
Q 5216 2772 5059 2928 
Q 4903 3084 4622 3084 
Q 4203 3084 3875 2770 
Q 3547 2456 3450 1953 
L 3066 0 
L 2491 0 
L 2900 2094 
Q 2925 2209 2937 2307 
Q 2950 2406 2950 2484 
Q 2950 2769 2794 2926 
Q 2638 3084 2363 3084 
Q 1938 3084 1609 2770 
Q 1281 2456 1184 1953 
L 800 0 
L 225 0 
L 909 3500 
L 1484 3500 
L 1375 2956 
Q 1609 3263 1923 3423 
Q 2238 3584 2597 3584 
Q 2978 3584 3223 3384 
Q 3469 3184 3519 2828 
Q 3781 3197 4126 3390 
Q 4472 3584 4856 3584 
Q 5306 3584 5551 3325 
Q 5797 3066 5797 2591 
Q 5797 2488 5784 2364 
Q 5772 2241 5747 2113 
z
" transform="scale(0.015625)"/>
       <path id="DejaVuSans-Oblique-6f" d="M 1625 -91 
Q 1009 -91 651 289 
Q 294 669 294 1325 
Q 294 1706 417 2101 
Q 541 2497 738 2766 
Q 1047 3184 1428 3384 
Q 1809 3584 2291 3584 
Q 2888 3584 3255 3212 
Q 3622 2841 3622 2241 
Q 3622 1825 3500 1412 
Q 3378 1000 3181 728 
Q 2875 309 2494 109 
Q 2113 -91 1625 -91 
z
M 891 1344 
Q 891 869 1089 633 
Q 1288 397 1691 397 
Q 2269 397 2648 901 
Q 3028 1406 3028 2181 
Q 3028 2634 2825 2865 
Q 2622 3097 2228 3097 
Q 1903 3097 1650 2945 
Q 1397 2794 1197 2484 
Q 1050 2253 970 1956 
Q 891 1659 891 1344 
z
" transform="scale(0.015625)"/>
       <path id="DejaVuSans-Oblique-62" d="M 3169 2138 
Q 3169 2591 2961 2847 
Q 2753 3103 2388 3103 
Q 2122 3103 1889 2973 
Q 1656 2844 1484 2597 
Q 1303 2338 1198 1995 
Q 1094 1653 1094 1313 
Q 1094 881 1298 636 
Q 1503 391 1863 391 
Q 2134 391 2365 517 
Q 2597 644 2772 891 
Q 2950 1147 3059 1487 
Q 3169 1828 3169 2138 
z
M 1381 2969 
Q 1594 3256 1914 3420 
Q 2234 3584 2584 3584 
Q 3122 3584 3439 3221 
Q 3756 2859 3756 2241 
Q 3756 1734 3570 1259 
Q 3384 784 3041 416 
Q 2816 172 2522 40 
Q 2228 -91 1906 -91 
Q 1566 -91 1316 65 
Q 1066 222 909 531 
L 806 0 
L 231 0 
L 1178 4863 
L 1753 4863 
L 1381 2969 
z
" transform="scale(0.015625)"/>
       <path id="DejaVuSans-Oblique-73" d="M 3200 3397 
L 3091 2853 
Q 2863 2978 2609 3040 
Q 2356 3103 2088 3103 
Q 1634 3103 1373 2948 
Q 1113 2794 1113 2528 
Q 1113 2219 1719 2053 
Q 1766 2041 1788 2034 
L 1972 1978 
Q 2547 1819 2739 1644 
Q 2931 1469 2931 1166 
Q 2931 609 2489 259 
Q 2047 -91 1331 -91 
Q 1053 -91 747 -37 
Q 441 16 72 128 
L 184 722 
Q 500 559 806 475 
Q 1113 391 1394 391 
Q 1816 391 2080 572 
Q 2344 753 2344 1031 
Q 2344 1331 1650 1516 
L 1591 1531 
L 1394 1581 
Q 956 1697 753 1886 
Q 550 2075 550 2369 
Q 550 2928 970 3256 
Q 1391 3584 2113 3584 
Q 2397 3584 2667 3537 
Q 2938 3491 3200 3397 
z
" transform="scale(0.015625)"/>
       <path id="DejaVuSans-2f" d="M 1625 4666 
L 2156 4666 
L 531 -594 
L 0 -594 
L 1625 4666 
z
" transform="scale(0.015625)"/>
       <path id="DejaVuSans-Oblique-79" d="M 1588 -325 
Q 1188 -997 936 -1164 
Q 684 -1331 294 -1331 
L -159 -1331 
L -63 -850 
L 269 -850 
Q 509 -850 678 -719 
Q 847 -588 1056 -206 
L 1234 128 
L 459 3500 
L 1069 3500 
L 1650 819 
L 3256 3500 
L 3859 3500 
L 1588 -325 
z
" transform="scale(0.015625)"/>
       <path id="DejaVuSans-Oblique-72" d="M 2853 2969 
Q 2766 3016 2653 3041 
Q 2541 3066 2413 3066 
Q 1953 3066 1609 2717 
Q 1266 2369 1153 1784 
L 800 0 
L 225 0 
L 909 3500 
L 1484 3500 
L 1375 2956 
Q 1603 3259 1920 3421 
Q 2238 3584 2597 3584 
Q 2691 3584 2781 3573 
Q 2872 3563 2963 3538 
L 2853 2969 
z
" transform="scale(0.015625)"/>
      </defs>
      <use xlink:href="#DejaVuSans-307" transform="translate(85.946777 13.015625)"/>
      <use xlink:href="#DejaVuSans-Oblique-6d" transform="translate(0 0.515625)"/>
      <use xlink:href="#DejaVuSans-Oblique-6f" transform="translate(98.369141 -15.890625)scale(0.7)"/>
      <use xlink:href="#DejaVuSans-Oblique-62" transform="translate(141.196289 -15.890625)scale(0.7)"/>
      <use xlink:href="#DejaVuSans-Oblique-73" transform="translate(185.629883 -15.890625)scale(0.7)"/>
      <use xlink:href="#DejaVuSans-28" transform="translate(224.833984 0.515625)"/>
      <use xlink:href="#DejaVuSans-Oblique-6d" transform="translate(263.847656 0.515625)"/>
      <use xlink:href="#DejaVuSans-2f" transform="translate(361.259766 0.515625)"/>
      <use xlink:href="#DejaVuSans-Oblique-79" transform="translate(394.951172 0.515625)"/>
      <use xlink:href="#DejaVuSans-Oblique-72" transform="translate(454.130859 0.515625)"/>
      <use xlink:href="#DejaVuSans-29" transform="translate(495.244141 0.515625)"/>
     </g>
    </g>
   </g>
   <g id="LineCollection_1">
    <path d="M 110.210052 480.250607 
L 110.210052 469.548217 
" clip-path="url(#p3ccf24adfb)" style="fill: none; stroke: #1f77b4; stroke-width: 1.5"/>
    <path d="M 116.422209 477.575009 
L 116.422209 466.87262 
" clip-path="url(#p3ccf24adfb)" style="fill: none; stroke: #1f77b4; stroke-width: 1.5"/>
    <path d="M 103.821182 480.250607 
L 103.821182 458.845828 
" clip-path="url(#p3ccf24adfb)" style="fill: none; stroke: #1f77b4; stroke-width: 1.5"/>
    <path d="M 107.259573 481.588405 
L 107.259573 460.183627 
" clip-path="url(#p3ccf24adfb)" style="fill: none; stroke: #1f77b4; stroke-width: 1.5"/>
    <path d="M 114.097888 482.926204 
L 114.097888 461.521426 
" clip-path="url(#p3ccf24adfb)" style="fill: none; stroke: #1f77b4; stroke-width: 1.5"/>
    <path d="M 112.643557 480.250607 
L 112.643557 448.143439 
" clip-path="url(#p3ccf24adfb)" style="fill: none; stroke: #1f77b4; stroke-width: 1.5"/>
    <path d="M 129.958973 449.481238 
L 129.958973 390.618097 
" clip-path="url(#p3ccf24adfb)" style="fill: none; stroke: #1f77b4; stroke-width: 1.5"/>
    <path d="M 109.983711 462.859224 
L 109.983711 406.671681 
" clip-path="url(#p3ccf24adfb)" style="fill: none; stroke: #1f77b4; stroke-width: 1.5"/>
    <path d="M 103.046063 486.9396 
L 103.046063 395.969291 
" clip-path="url(#p3ccf24adfb)" style="fill: none; stroke: #1f77b4; stroke-width: 1.5"/>
    <path d="M 124.365818 456.170231 
L 124.365818 399.982687 
" clip-path="url(#p3ccf24adfb)" style="fill: none; stroke: #1f77b4; stroke-width: 1.5"/>
    <path d="M 173.127214 436.103251 
L 173.127214 382.591305 
" clip-path="url(#p3ccf24adfb)" style="fill: none; stroke: #1f77b4; stroke-width: 1.5"/>
    <path d="M 148.521183 484.264003 
L 148.521183 444.130043 
" clip-path="url(#p3ccf24adfb)" style="fill: none; stroke: #1f77b4; stroke-width: 1.5"/>
    <path d="M 237.72786 311.687976 
L 237.72786 268.878419 
" clip-path="url(#p3ccf24adfb)" style="fill: none; stroke: #1f77b4; stroke-width: 1.5"/>
    <path d="M 433.101056 152.489936 
L 433.101056 88.2756 
" clip-path="url(#p3ccf24adfb)" style="fill: none; stroke: #1f77b4; stroke-width: 1.5"/>
    <path d="M 265.582644 397.30709 
L 265.582644 349.146338 
" clip-path="url(#p3ccf24adfb)" style="fill: none; stroke: #1f77b4; stroke-width: 1.5"/>
    <path d="M 228.851746 426.73866 
L 228.851746 383.929103 
" clip-path="url(#p3ccf24adfb)" style="fill: none; stroke: #1f77b4; stroke-width: 1.5"/>
    <path d="M 169.231759 440.116647 
L 169.231759 402.658285 
" clip-path="url(#p3ccf24adfb)" style="fill: none; stroke: #1f77b4; stroke-width: 1.5"/>
    <path d="M 372.454232 240.784647 
L 372.454232 168.543519 
" clip-path="url(#p3ccf24adfb)" style="fill: none; stroke: #1f77b4; stroke-width: 1.5"/>
    <path d="M 128.02825 480.250607 
L 128.02825 442.792244 
" clip-path="url(#p3ccf24adfb)" style="fill: none; stroke: #1f77b4; stroke-width: 1.5"/>
    <path d="M 102.395497 474.899412 
L 102.395497 440.116647 
" clip-path="url(#p3ccf24adfb)" style="fill: none; stroke: #1f77b4; stroke-width: 1.5"/>
    <path d="M 102.459124 457.50803 
L 102.459124 409.347278 
" clip-path="url(#p3ccf24adfb)" style="fill: none; stroke: #1f77b4; stroke-width: 1.5"/>
    <path d="M 111.375074 478.912808 
L 111.375074 468.210419 
" clip-path="url(#p3ccf24adfb)" style="fill: none; stroke: #1f77b4; stroke-width: 1.5"/>
    <path d="M 105.210678 478.912808 
L 105.210678 468.210419 
" clip-path="url(#p3ccf24adfb)" style="fill: none; stroke: #1f77b4; stroke-width: 1.5"/>
    <path d="M 185.130112 464.197023 
L 185.130112 440.116647 
" clip-path="url(#p3ccf24adfb)" style="fill: none; stroke: #1f77b4; stroke-width: 1.5"/>
    <path d="M 111.611947 470.886016 
L 111.611947 441.454446 
" clip-path="url(#p3ccf24adfb)" style="fill: none; stroke: #1f77b4; stroke-width: 1.5"/>
    <path d="M 119.315526 485.601801 
L 119.315526 440.116647 
" clip-path="url(#p3ccf24adfb)" style="fill: none; stroke: #1f77b4; stroke-width: 1.5"/>
    <path d="M 106.228073 470.886016 
L 106.228073 433.427654 
" clip-path="url(#p3ccf24adfb)" style="fill: none; stroke: #1f77b4; stroke-width: 1.5"/>
    <path d="M 245.776434 481.588405 
L 245.776434 438.778848 
" clip-path="url(#p3ccf24adfb)" style="fill: none; stroke: #1f77b4; stroke-width: 1.5"/>
    <path d="M 199.298248 442.792244 
L 199.298248 378.577909 
" clip-path="url(#p3ccf24adfb)" style="fill: none; stroke: #1f77b4; stroke-width: 1.5"/>
    <path d="M 270.215866 350.484137 
L 270.215866 296.972191 
" clip-path="url(#p3ccf24adfb)" style="fill: none; stroke: #1f77b4; stroke-width: 1.5"/>
    <path d="M 130.43757 478.912808 
L 130.43757 428.076459 
" clip-path="url(#p3ccf24adfb)" style="fill: none; stroke: #1f77b4; stroke-width: 1.5"/>
    <path d="M 123.125295 482.926204 
L 123.125295 434.765452 
" clip-path="url(#p3ccf24adfb)" style="fill: none; stroke: #1f77b4; stroke-width: 1.5"/>
    <path d="M 120.479114 477.575009 
L 120.479114 437.44105 
" clip-path="url(#p3ccf24adfb)" style="fill: none; stroke: #1f77b4; stroke-width: 1.5"/>
    <path d="M 111.312275 477.575009 
L 111.312275 450.819036 
" clip-path="url(#p3ccf24adfb)" style="fill: none; stroke: #1f77b4; stroke-width: 1.5"/>
    <path d="M 132.187288 480.250607 
L 132.187288 453.494634 
" clip-path="url(#p3ccf24adfb)" style="fill: none; stroke: #1f77b4; stroke-width: 1.5"/>
    <path d="M 117.497846 477.575009 
L 117.497846 456.170231 
" clip-path="url(#p3ccf24adfb)" style="fill: none; stroke: #1f77b4; stroke-width: 1.5"/>
    <path d="M 123.962806 474.899412 
L 123.962806 453.494634 
" clip-path="url(#p3ccf24adfb)" style="fill: none; stroke: #1f77b4; stroke-width: 1.5"/>
    <path d="M 110.84053 477.575009 
L 110.84053 448.143439 
" clip-path="url(#p3ccf24adfb)" style="fill: none; stroke: #1f77b4; stroke-width: 1.5"/>
    <path d="M 143.55337 474.899412 
L 143.55337 448.143439 
" clip-path="url(#p3ccf24adfb)" style="fill: none; stroke: #1f77b4; stroke-width: 1.5"/>
    <path d="M 106.877021 480.250607 
L 106.877021 448.143439 
" clip-path="url(#p3ccf24adfb)" style="fill: none; stroke: #1f77b4; stroke-width: 1.5"/>
    <path d="M 119.362032 478.912808 
L 119.362032 449.481238 
" clip-path="url(#p3ccf24adfb)" style="fill: none; stroke: #1f77b4; stroke-width: 1.5"/>
    <path d="M 208.355263 338.443949 
L 208.355263 260.851627 
" clip-path="url(#p3ccf24adfb)" style="fill: none; stroke: #1f77b4; stroke-width: 1.5"/>
    <path d="M 249.791443 406.671681 
L 249.791443 350.484137 
" clip-path="url(#p3ccf24adfb)" style="fill: none; stroke: #1f77b4; stroke-width: 1.5"/>
    <path d="M 108.816471 472.223815 
L 108.816471 421.387466 
" clip-path="url(#p3ccf24adfb)" style="fill: none; stroke: #1f77b4; stroke-width: 1.5"/>
   </g>
   <g id="line2d_15">
    <path d="M 98.635909 477.575009 
L 113.591708 464.197023 
L 128.547508 450.819036 
L 143.503307 437.44105 
L 158.459107 424.063063 
L 173.414906 410.685077 
L 188.370705 397.30709 
L 203.326505 383.929103 
L 218.282304 370.551117 
L 233.238103 357.17313 
L 248.193903 343.795144 
L 263.149702 330.417157 
L 278.105502 317.03917 
L 293.061301 303.661184 
L 308.0171 290.283197 
L 322.9729 276.905211 
L 337.928699 263.527224 
L 352.884498 250.149238 
L 367.840298 236.771251 
L 382.796097 223.393264 
L 397.751897 210.015278 
L 412.707696 196.637291 
L 427.663495 183.259305 
L 442.619295 169.881318 
L 457.575094 156.503332 
L 472.530893 143.125345 
L 487.486693 129.747358 
L 502.442492 116.369372 
L 517.398292 102.991385 
L 532.354091 89.613399 
" clip-path="url(#p3ccf24adfb)" style="fill: none; stroke: #ff7f0e; stroke-width: 1.5; stroke-linecap: square"/>
   </g>
   <g id="line2d_16"/>
   <g id="patch_3">
    <path d="M 76.95 506.8728 
L 76.95 68.3424 
" style="fill: none; stroke: #000000; stroke-width: 0.8; stroke-linejoin: miter; stroke-linecap: square"/>
   </g>
   <g id="patch_4">
    <path d="M 554.04 506.8728 
L 554.04 68.3424 
" style="fill: none; stroke: #000000; stroke-width: 0.8; stroke-linejoin: miter; stroke-linecap: square"/>
   </g>
   <g id="patch_5">
    <path d="M 76.95 506.8728 
L 554.04 506.8728 
" style="fill: none; stroke: #000000; stroke-width: 0.8; stroke-linejoin: miter; stroke-linecap: square"/>
   </g>
   <g id="patch_6">
    <path d="M 76.95 68.3424 
L 554.04 68.3424 
" style="fill: none; stroke: #000000; stroke-width: 0.8; stroke-linejoin: miter; stroke-linecap: square"/>
   </g>
   <g id="text_17">
    <!-- $r^2=$0.81 -->
    <g transform="translate(100.8045 99.387045)scale(0.12 -0.12)">
     <defs>
      <path id="DejaVuSans-3d" d="M 678 2906 
L 4684 2906 
L 4684 2381 
L 678 2381 
L 678 2906 
z
M 678 1631 
L 4684 1631 
L 4684 1100 
L 678 1100 
L 678 1631 
z
" transform="scale(0.015625)"/>
      <path id="DejaVuSans-2e" d="M 684 794 
L 1344 794 
L 1344 0 
L 684 0 
L 684 794 
z
" transform="scale(0.015625)"/>
      <path id="DejaVuSans-38" d="M 2034 2216 
Q 1584 2216 1326 1975 
Q 1069 1734 1069 1313 
Q 1069 891 1326 650 
Q 1584 409 2034 409 
Q 2484 409 2743 651 
Q 3003 894 3003 1313 
Q 3003 1734 2745 1975 
Q 2488 2216 2034 2216 
z
M 1403 2484 
Q 997 2584 770 2862 
Q 544 3141 544 3541 
Q 544 4100 942 4425 
Q 1341 4750 2034 4750 
Q 2731 4750 3128 4425 
Q 3525 4100 3525 3541 
Q 3525 3141 3298 2862 
Q 3072 2584 2669 2484 
Q 3125 2378 3379 2068 
Q 3634 1759 3634 1313 
Q 3634 634 3220 271 
Q 2806 -91 2034 -91 
Q 1263 -91 848 271 
Q 434 634 434 1313 
Q 434 1759 690 2068 
Q 947 2378 1403 2484 
z
M 1172 3481 
Q 1172 3119 1398 2916 
Q 1625 2713 2034 2713 
Q 2441 2713 2670 2916 
Q 2900 3119 2900 3481 
Q 2900 3844 2670 4047 
Q 2441 4250 2034 4250 
Q 1625 4250 1398 4047 
Q 1172 3844 1172 3481 
z
" transform="scale(0.015625)"/>
     </defs>
     <use xlink:href="#DejaVuSans-Oblique-72" transform="translate(0 0.765625)"/>
     <use xlink:href="#DejaVuSans-32" transform="translate(45.763177 39.046875)scale(0.7)"/>
     <use xlink:href="#DejaVuSans-3d" transform="translate(112.516107 0.765625)"/>
     <use xlink:href="#DejaVuSans-30" transform="translate(215.787591 0.765625)"/>
     <use xlink:href="#DejaVuSans-2e" transform="translate(279.410638 0.765625)"/>
     <use xlink:href="#DejaVuSans-38" transform="translate(308.572747 0.765625)"/>
     <use xlink:href="#DejaVuSans-31" transform="translate(372.195794 0.765625)"/>
    </g>
   </g>
   <g id="text_18">
    <!-- Ronne -->
    <g transform="translate(110.210052 474.899412)scale(0.1 -0.1)">
     <defs>
      <path id="DejaVuSans-52" d="M 2841 2188 
Q 3044 2119 3236 1894 
Q 3428 1669 3622 1275 
L 4263 0 
L 3584 0 
L 2988 1197 
Q 2756 1666 2539 1819 
Q 2322 1972 1947 1972 
L 1259 1972 
L 1259 0 
L 628 0 
L 628 4666 
L 2053 4666 
Q 2853 4666 3247 4331 
Q 3641 3997 3641 3322 
Q 3641 2881 3436 2590 
Q 3231 2300 2841 2188 
z
M 1259 4147 
L 1259 2491 
L 2053 2491 
Q 2509 2491 2742 2702 
Q 2975 2913 2975 3322 
Q 2975 3731 2742 3939 
Q 2509 4147 2053 4147 
L 1259 4147 
z
" transform="scale(0.015625)"/>
      <path id="DejaVuSans-6f" d="M 1959 3097 
Q 1497 3097 1228 2736 
Q 959 2375 959 1747 
Q 959 1119 1226 758 
Q 1494 397 1959 397 
Q 2419 397 2687 759 
Q 2956 1122 2956 1747 
Q 2956 2369 2687 2733 
Q 2419 3097 1959 3097 
z
M 1959 3584 
Q 2709 3584 3137 3096 
Q 3566 2609 3566 1747 
Q 3566 888 3137 398 
Q 2709 -91 1959 -91 
Q 1206 -91 779 398 
Q 353 888 353 1747 
Q 353 2609 779 3096 
Q 1206 3584 1959 3584 
z
" transform="scale(0.015625)"/>
      <path id="DejaVuSans-6e" d="M 3513 2113 
L 3513 0 
L 2938 0 
L 2938 2094 
Q 2938 2591 2744 2837 
Q 2550 3084 2163 3084 
Q 1697 3084 1428 2787 
Q 1159 2491 1159 1978 
L 1159 0 
L 581 0 
L 581 3500 
L 1159 3500 
L 1159 2956 
Q 1366 3272 1645 3428 
Q 1925 3584 2291 3584 
Q 2894 3584 3203 3211 
Q 3513 2838 3513 2113 
z
" transform="scale(0.015625)"/>
      <path id="DejaVuSans-65" d="M 3597 1894 
L 3597 1613 
L 953 1613 
Q 991 1019 1311 708 
Q 1631 397 2203 397 
Q 2534 397 2845 478 
Q 3156 559 3463 722 
L 3463 178 
Q 3153 47 2828 -22 
Q 2503 -91 2169 -91 
Q 1331 -91 842 396 
Q 353 884 353 1716 
Q 353 2575 817 3079 
Q 1281 3584 2069 3584 
Q 2775 3584 3186 3129 
Q 3597 2675 3597 1894 
z
M 3022 2063 
Q 3016 2534 2758 2815 
Q 2500 3097 2075 3097 
Q 1594 3097 1305 2825 
Q 1016 2553 972 2059 
L 3022 2063 
z
" transform="scale(0.015625)"/>
     </defs>
     <use xlink:href="#DejaVuSans-52"/>
     <use xlink:href="#DejaVuSans-6f" x="64.982422"/>
     <use xlink:href="#DejaVuSans-6e" x="126.164062"/>
     <use xlink:href="#DejaVuSans-6e" x="189.542969"/>
     <use xlink:href="#DejaVuSans-65" x="252.921875"/>
    </g>
   </g>
   <g id="text_19">
    <!-- Filchner -->
    <g transform="translate(116.422209 472.223815)scale(0.1 -0.1)">
     <defs>
      <path id="DejaVuSans-46" d="M 628 4666 
L 3309 4666 
L 3309 4134 
L 1259 4134 
L 1259 2759 
L 3109 2759 
L 3109 2228 
L 1259 2228 
L 1259 0 
L 628 0 
L 628 4666 
z
" transform="scale(0.015625)"/>
      <path id="DejaVuSans-69" d="M 603 3500 
L 1178 3500 
L 1178 0 
L 603 0 
L 603 3500 
z
M 603 4863 
L 1178 4863 
L 1178 4134 
L 603 4134 
L 603 4863 
z
" transform="scale(0.015625)"/>
      <path id="DejaVuSans-6c" d="M 603 4863 
L 1178 4863 
L 1178 0 
L 603 0 
L 603 4863 
z
" transform="scale(0.015625)"/>
      <path id="DejaVuSans-63" d="M 3122 3366 
L 3122 2828 
Q 2878 2963 2633 3030 
Q 2388 3097 2138 3097 
Q 1578 3097 1268 2742 
Q 959 2388 959 1747 
Q 959 1106 1268 751 
Q 1578 397 2138 397 
Q 2388 397 2633 464 
Q 2878 531 3122 666 
L 3122 134 
Q 2881 22 2623 -34 
Q 2366 -91 2075 -91 
Q 1284 -91 818 406 
Q 353 903 353 1747 
Q 353 2603 823 3093 
Q 1294 3584 2113 3584 
Q 2378 3584 2631 3529 
Q 2884 3475 3122 3366 
z
" transform="scale(0.015625)"/>
      <path id="DejaVuSans-68" d="M 3513 2113 
L 3513 0 
L 2938 0 
L 2938 2094 
Q 2938 2591 2744 2837 
Q 2550 3084 2163 3084 
Q 1697 3084 1428 2787 
Q 1159 2491 1159 1978 
L 1159 0 
L 581 0 
L 581 4863 
L 1159 4863 
L 1159 2956 
Q 1366 3272 1645 3428 
Q 1925 3584 2291 3584 
Q 2894 3584 3203 3211 
Q 3513 2838 3513 2113 
z
" transform="scale(0.015625)"/>
      <path id="DejaVuSans-72" d="M 2631 2963 
Q 2534 3019 2420 3045 
Q 2306 3072 2169 3072 
Q 1681 3072 1420 2755 
Q 1159 2438 1159 1844 
L 1159 0 
L 581 0 
L 581 3500 
L 1159 3500 
L 1159 2956 
Q 1341 3275 1631 3429 
Q 1922 3584 2338 3584 
Q 2397 3584 2469 3576 
Q 2541 3569 2628 3553 
L 2631 2963 
z
" transform="scale(0.015625)"/>
     </defs>
     <use xlink:href="#DejaVuSans-46"/>
     <use xlink:href="#DejaVuSans-69" x="50.269531"/>
     <use xlink:href="#DejaVuSans-6c" x="78.052734"/>
     <use xlink:href="#DejaVuSans-63" x="105.835938"/>
     <use xlink:href="#DejaVuSans-68" x="160.816406"/>
     <use xlink:href="#DejaVuSans-6e" x="224.195312"/>
     <use xlink:href="#DejaVuSans-65" x="287.574219"/>
     <use xlink:href="#DejaVuSans-72" x="349.097656"/>
    </g>
   </g>
   <g id="text_20">
    <!-- Brunt_Stancomb -->
    <g transform="translate(103.821182 469.548217)scale(0.1 -0.1)">
     <defs>
      <path id="DejaVuSans-42" d="M 1259 2228 
L 1259 519 
L 2272 519 
Q 2781 519 3026 730 
Q 3272 941 3272 1375 
Q 3272 1813 3026 2020 
Q 2781 2228 2272 2228 
L 1259 2228 
z
M 1259 4147 
L 1259 2741 
L 2194 2741 
Q 2656 2741 2882 2914 
Q 3109 3088 3109 3444 
Q 3109 3797 2882 3972 
Q 2656 4147 2194 4147 
L 1259 4147 
z
M 628 4666 
L 2241 4666 
Q 2963 4666 3353 4366 
Q 3744 4066 3744 3513 
Q 3744 3084 3544 2831 
Q 3344 2578 2956 2516 
Q 3422 2416 3680 2098 
Q 3938 1781 3938 1306 
Q 3938 681 3513 340 
Q 3088 0 2303 0 
L 628 0 
L 628 4666 
z
" transform="scale(0.015625)"/>
      <path id="DejaVuSans-75" d="M 544 1381 
L 544 3500 
L 1119 3500 
L 1119 1403 
Q 1119 906 1312 657 
Q 1506 409 1894 409 
Q 2359 409 2629 706 
Q 2900 1003 2900 1516 
L 2900 3500 
L 3475 3500 
L 3475 0 
L 2900 0 
L 2900 538 
Q 2691 219 2414 64 
Q 2138 -91 1772 -91 
Q 1169 -91 856 284 
Q 544 659 544 1381 
z
M 1991 3584 
L 1991 3584 
z
" transform="scale(0.015625)"/>
      <path id="DejaVuSans-74" d="M 1172 4494 
L 1172 3500 
L 2356 3500 
L 2356 3053 
L 1172 3053 
L 1172 1153 
Q 1172 725 1289 603 
Q 1406 481 1766 481 
L 2356 481 
L 2356 0 
L 1766 0 
Q 1100 0 847 248 
Q 594 497 594 1153 
L 594 3053 
L 172 3053 
L 172 3500 
L 594 3500 
L 594 4494 
L 1172 4494 
z
" transform="scale(0.015625)"/>
      <path id="DejaVuSans-5f" d="M 3263 -1063 
L 3263 -1509 
L -63 -1509 
L -63 -1063 
L 3263 -1063 
z
" transform="scale(0.015625)"/>
      <path id="DejaVuSans-53" d="M 3425 4513 
L 3425 3897 
Q 3066 4069 2747 4153 
Q 2428 4238 2131 4238 
Q 1616 4238 1336 4038 
Q 1056 3838 1056 3469 
Q 1056 3159 1242 3001 
Q 1428 2844 1947 2747 
L 2328 2669 
Q 3034 2534 3370 2195 
Q 3706 1856 3706 1288 
Q 3706 609 3251 259 
Q 2797 -91 1919 -91 
Q 1588 -91 1214 -16 
Q 841 59 441 206 
L 441 856 
Q 825 641 1194 531 
Q 1563 422 1919 422 
Q 2459 422 2753 634 
Q 3047 847 3047 1241 
Q 3047 1584 2836 1778 
Q 2625 1972 2144 2069 
L 1759 2144 
Q 1053 2284 737 2584 
Q 422 2884 422 3419 
Q 422 4038 858 4394 
Q 1294 4750 2059 4750 
Q 2388 4750 2728 4690 
Q 3069 4631 3425 4513 
z
" transform="scale(0.015625)"/>
      <path id="DejaVuSans-61" d="M 2194 1759 
Q 1497 1759 1228 1600 
Q 959 1441 959 1056 
Q 959 750 1161 570 
Q 1363 391 1709 391 
Q 2188 391 2477 730 
Q 2766 1069 2766 1631 
L 2766 1759 
L 2194 1759 
z
M 3341 1997 
L 3341 0 
L 2766 0 
L 2766 531 
Q 2569 213 2275 61 
Q 1981 -91 1556 -91 
Q 1019 -91 701 211 
Q 384 513 384 1019 
Q 384 1609 779 1909 
Q 1175 2209 1959 2209 
L 2766 2209 
L 2766 2266 
Q 2766 2663 2505 2880 
Q 2244 3097 1772 3097 
Q 1472 3097 1187 3025 
Q 903 2953 641 2809 
L 641 3341 
Q 956 3463 1253 3523 
Q 1550 3584 1831 3584 
Q 2591 3584 2966 3190 
Q 3341 2797 3341 1997 
z
" transform="scale(0.015625)"/>
      <path id="DejaVuSans-6d" d="M 3328 2828 
Q 3544 3216 3844 3400 
Q 4144 3584 4550 3584 
Q 5097 3584 5394 3201 
Q 5691 2819 5691 2113 
L 5691 0 
L 5113 0 
L 5113 2094 
Q 5113 2597 4934 2840 
Q 4756 3084 4391 3084 
Q 3944 3084 3684 2787 
Q 3425 2491 3425 1978 
L 3425 0 
L 2847 0 
L 2847 2094 
Q 2847 2600 2669 2842 
Q 2491 3084 2119 3084 
Q 1678 3084 1418 2786 
Q 1159 2488 1159 1978 
L 1159 0 
L 581 0 
L 581 3500 
L 1159 3500 
L 1159 2956 
Q 1356 3278 1631 3431 
Q 1906 3584 2284 3584 
Q 2666 3584 2933 3390 
Q 3200 3197 3328 2828 
z
" transform="scale(0.015625)"/>
      <path id="DejaVuSans-62" d="M 3116 1747 
Q 3116 2381 2855 2742 
Q 2594 3103 2138 3103 
Q 1681 3103 1420 2742 
Q 1159 2381 1159 1747 
Q 1159 1113 1420 752 
Q 1681 391 2138 391 
Q 2594 391 2855 752 
Q 3116 1113 3116 1747 
z
M 1159 2969 
Q 1341 3281 1617 3432 
Q 1894 3584 2278 3584 
Q 2916 3584 3314 3078 
Q 3713 2572 3713 1747 
Q 3713 922 3314 415 
Q 2916 -91 2278 -91 
Q 1894 -91 1617 61 
Q 1341 213 1159 525 
L 1159 0 
L 581 0 
L 581 4863 
L 1159 4863 
L 1159 2969 
z
" transform="scale(0.015625)"/>
     </defs>
     <use xlink:href="#DejaVuSans-42"/>
     <use xlink:href="#DejaVuSans-72" x="68.603516"/>
     <use xlink:href="#DejaVuSans-75" x="109.716797"/>
     <use xlink:href="#DejaVuSans-6e" x="173.095703"/>
     <use xlink:href="#DejaVuSans-74" x="236.474609"/>
     <use xlink:href="#DejaVuSans-5f" x="275.683594"/>
     <use xlink:href="#DejaVuSans-53" x="325.683594"/>
     <use xlink:href="#DejaVuSans-74" x="389.160156"/>
     <use xlink:href="#DejaVuSans-61" x="428.369141"/>
     <use xlink:href="#DejaVuSans-6e" x="489.648438"/>
     <use xlink:href="#DejaVuSans-63" x="553.027344"/>
     <use xlink:href="#DejaVuSans-6f" x="608.007812"/>
     <use xlink:href="#DejaVuSans-6d" x="669.189453"/>
     <use xlink:href="#DejaVuSans-62" x="766.601562"/>
    </g>
   </g>
   <g id="text_21">
    <!-- Riiser-Larsen -->
    <g transform="translate(107.259573 470.886016)scale(0.1 -0.1)">
     <defs>
      <path id="DejaVuSans-73" d="M 2834 3397 
L 2834 2853 
Q 2591 2978 2328 3040 
Q 2066 3103 1784 3103 
Q 1356 3103 1142 2972 
Q 928 2841 928 2578 
Q 928 2378 1081 2264 
Q 1234 2150 1697 2047 
L 1894 2003 
Q 2506 1872 2764 1633 
Q 3022 1394 3022 966 
Q 3022 478 2636 193 
Q 2250 -91 1575 -91 
Q 1294 -91 989 -36 
Q 684 19 347 128 
L 347 722 
Q 666 556 975 473 
Q 1284 391 1588 391 
Q 1994 391 2212 530 
Q 2431 669 2431 922 
Q 2431 1156 2273 1281 
Q 2116 1406 1581 1522 
L 1381 1569 
Q 847 1681 609 1914 
Q 372 2147 372 2553 
Q 372 3047 722 3315 
Q 1072 3584 1716 3584 
Q 2034 3584 2315 3537 
Q 2597 3491 2834 3397 
z
" transform="scale(0.015625)"/>
      <path id="DejaVuSans-2d" d="M 313 2009 
L 1997 2009 
L 1997 1497 
L 313 1497 
L 313 2009 
z
" transform="scale(0.015625)"/>
      <path id="DejaVuSans-4c" d="M 628 4666 
L 1259 4666 
L 1259 531 
L 3531 531 
L 3531 0 
L 628 0 
L 628 4666 
z
" transform="scale(0.015625)"/>
     </defs>
     <use xlink:href="#DejaVuSans-52"/>
     <use xlink:href="#DejaVuSans-69" x="69.482422"/>
     <use xlink:href="#DejaVuSans-69" x="97.265625"/>
     <use xlink:href="#DejaVuSans-73" x="125.048828"/>
     <use xlink:href="#DejaVuSans-65" x="177.148438"/>
     <use xlink:href="#DejaVuSans-72" x="238.671875"/>
     <use xlink:href="#DejaVuSans-2d" x="273.410156"/>
     <use xlink:href="#DejaVuSans-4c" x="309.494141"/>
     <use xlink:href="#DejaVuSans-61" x="365.207031"/>
     <use xlink:href="#DejaVuSans-72" x="426.486328"/>
     <use xlink:href="#DejaVuSans-73" x="467.599609"/>
     <use xlink:href="#DejaVuSans-65" x="519.699219"/>
     <use xlink:href="#DejaVuSans-6e" x="581.222656"/>
    </g>
   </g>
   <g id="text_22">
    <!-- Quar -->
    <g transform="translate(114.097888 472.223815)scale(0.1 -0.1)">
     <defs>
      <path id="DejaVuSans-51" d="M 2522 4238 
Q 1834 4238 1429 3725 
Q 1025 3213 1025 2328 
Q 1025 1447 1429 934 
Q 1834 422 2522 422 
Q 3209 422 3611 934 
Q 4013 1447 4013 2328 
Q 4013 3213 3611 3725 
Q 3209 4238 2522 4238 
z
M 3406 84 
L 4238 -825 
L 3475 -825 
L 2784 -78 
Q 2681 -84 2626 -87 
Q 2572 -91 2522 -91 
Q 1538 -91 948 567 
Q 359 1225 359 2328 
Q 359 3434 948 4092 
Q 1538 4750 2522 4750 
Q 3503 4750 4090 4092 
Q 4678 3434 4678 2328 
Q 4678 1516 4351 937 
Q 4025 359 3406 84 
z
" transform="scale(0.015625)"/>
     </defs>
     <use xlink:href="#DejaVuSans-51"/>
     <use xlink:href="#DejaVuSans-75" x="78.710938"/>
     <use xlink:href="#DejaVuSans-61" x="142.089844"/>
     <use xlink:href="#DejaVuSans-72" x="203.369141"/>
    </g>
   </g>
   <g id="text_23">
    <!-- Ekstrom -->
    <g transform="translate(112.643557 464.197023)scale(0.1 -0.1)">
     <defs>
      <path id="DejaVuSans-45" d="M 628 4666 
L 3578 4666 
L 3578 4134 
L 1259 4134 
L 1259 2753 
L 3481 2753 
L 3481 2222 
L 1259 2222 
L 1259 531 
L 3634 531 
L 3634 0 
L 628 0 
L 628 4666 
z
" transform="scale(0.015625)"/>
      <path id="DejaVuSans-6b" d="M 581 4863 
L 1159 4863 
L 1159 1991 
L 2875 3500 
L 3609 3500 
L 1753 1863 
L 3688 0 
L 2938 0 
L 1159 1709 
L 1159 0 
L 581 0 
L 581 4863 
z
" transform="scale(0.015625)"/>
     </defs>
     <use xlink:href="#DejaVuSans-45"/>
     <use xlink:href="#DejaVuSans-6b" x="63.183594"/>
     <use xlink:href="#DejaVuSans-73" x="121.09375"/>
     <use xlink:href="#DejaVuSans-74" x="173.193359"/>
     <use xlink:href="#DejaVuSans-72" x="212.402344"/>
     <use xlink:href="#DejaVuSans-6f" x="251.265625"/>
     <use xlink:href="#DejaVuSans-6d" x="312.447266"/>
    </g>
   </g>
   <g id="text_24">
    <!-- George_VI -->
    <g transform="translate(129.958973 420.049667)scale(0.1 -0.1)">
     <defs>
      <path id="DejaVuSans-47" d="M 3809 666 
L 3809 1919 
L 2778 1919 
L 2778 2438 
L 4434 2438 
L 4434 434 
Q 4069 175 3628 42 
Q 3188 -91 2688 -91 
Q 1594 -91 976 548 
Q 359 1188 359 2328 
Q 359 3472 976 4111 
Q 1594 4750 2688 4750 
Q 3144 4750 3555 4637 
Q 3966 4525 4313 4306 
L 4313 3634 
Q 3963 3931 3569 4081 
Q 3175 4231 2741 4231 
Q 1884 4231 1454 3753 
Q 1025 3275 1025 2328 
Q 1025 1384 1454 906 
Q 1884 428 2741 428 
Q 3075 428 3337 486 
Q 3600 544 3809 666 
z
" transform="scale(0.015625)"/>
      <path id="DejaVuSans-67" d="M 2906 1791 
Q 2906 2416 2648 2759 
Q 2391 3103 1925 3103 
Q 1463 3103 1205 2759 
Q 947 2416 947 1791 
Q 947 1169 1205 825 
Q 1463 481 1925 481 
Q 2391 481 2648 825 
Q 2906 1169 2906 1791 
z
M 3481 434 
Q 3481 -459 3084 -895 
Q 2688 -1331 1869 -1331 
Q 1566 -1331 1297 -1286 
Q 1028 -1241 775 -1147 
L 775 -588 
Q 1028 -725 1275 -790 
Q 1522 -856 1778 -856 
Q 2344 -856 2625 -561 
Q 2906 -266 2906 331 
L 2906 616 
Q 2728 306 2450 153 
Q 2172 0 1784 0 
Q 1141 0 747 490 
Q 353 981 353 1791 
Q 353 2603 747 3093 
Q 1141 3584 1784 3584 
Q 2172 3584 2450 3431 
Q 2728 3278 2906 2969 
L 2906 3500 
L 3481 3500 
L 3481 434 
z
" transform="scale(0.015625)"/>
      <path id="DejaVuSans-56" d="M 1831 0 
L 50 4666 
L 709 4666 
L 2188 738 
L 3669 4666 
L 4325 4666 
L 2547 0 
L 1831 0 
z
" transform="scale(0.015625)"/>
      <path id="DejaVuSans-49" d="M 628 4666 
L 1259 4666 
L 1259 0 
L 628 0 
L 628 4666 
z
" transform="scale(0.015625)"/>
     </defs>
     <use xlink:href="#DejaVuSans-47"/>
     <use xlink:href="#DejaVuSans-65" x="77.490234"/>
     <use xlink:href="#DejaVuSans-6f" x="139.013672"/>
     <use xlink:href="#DejaVuSans-72" x="200.195312"/>
     <use xlink:href="#DejaVuSans-67" x="239.558594"/>
     <use xlink:href="#DejaVuSans-65" x="303.035156"/>
     <use xlink:href="#DejaVuSans-5f" x="364.558594"/>
     <use xlink:href="#DejaVuSans-56" x="414.558594"/>
     <use xlink:href="#DejaVuSans-49" x="482.966797"/>
    </g>
   </g>
   <g id="text_25">
    <!-- Bach -->
    <g transform="translate(109.983711 434.765452)scale(0.1 -0.1)">
     <use xlink:href="#DejaVuSans-42"/>
     <use xlink:href="#DejaVuSans-61" x="68.603516"/>
     <use xlink:href="#DejaVuSans-63" x="129.882812"/>
     <use xlink:href="#DejaVuSans-68" x="184.863281"/>
    </g>
   </g>
   <g id="text_26">
    <!-- Wilkins -->
    <g transform="translate(103.046063 441.454446)scale(0.1 -0.1)">
     <defs>
      <path id="DejaVuSans-57" d="M 213 4666 
L 850 4666 
L 1831 722 
L 2809 4666 
L 3519 4666 
L 4500 722 
L 5478 4666 
L 6119 4666 
L 4947 0 
L 4153 0 
L 3169 4050 
L 2175 0 
L 1381 0 
L 213 4666 
z
" transform="scale(0.015625)"/>
     </defs>
     <use xlink:href="#DejaVuSans-57"/>
     <use xlink:href="#DejaVuSans-69" x="96.626953"/>
     <use xlink:href="#DejaVuSans-6c" x="124.410156"/>
     <use xlink:href="#DejaVuSans-6b" x="152.193359"/>
     <use xlink:href="#DejaVuSans-69" x="210.103516"/>
     <use xlink:href="#DejaVuSans-6e" x="237.886719"/>
     <use xlink:href="#DejaVuSans-73" x="301.265625"/>
    </g>
   </g>
   <g id="text_27">
    <!-- Stange -->
    <g transform="translate(124.365818 428.076459)scale(0.1 -0.1)">
     <use xlink:href="#DejaVuSans-53"/>
     <use xlink:href="#DejaVuSans-74" x="63.476562"/>
     <use xlink:href="#DejaVuSans-61" x="102.685547"/>
     <use xlink:href="#DejaVuSans-6e" x="163.964844"/>
     <use xlink:href="#DejaVuSans-67" x="227.34375"/>
     <use xlink:href="#DejaVuSans-65" x="290.820312"/>
    </g>
   </g>
   <g id="text_28">
    <!-- Venable -->
    <g transform="translate(173.127214 409.347278)scale(0.1 -0.1)">
     <use xlink:href="#DejaVuSans-56"/>
     <use xlink:href="#DejaVuSans-65" x="60.658203"/>
     <use xlink:href="#DejaVuSans-6e" x="122.181641"/>
     <use xlink:href="#DejaVuSans-61" x="185.560547"/>
     <use xlink:href="#DejaVuSans-62" x="246.839844"/>
     <use xlink:href="#DejaVuSans-6c" x="310.316406"/>
     <use xlink:href="#DejaVuSans-65" x="338.099609"/>
    </g>
   </g>
   <g id="text_29">
    <!-- Cosgrove -->
    <g transform="translate(148.521183 464.197023)scale(0.1 -0.1)">
     <defs>
      <path id="DejaVuSans-43" d="M 4122 4306 
L 4122 3641 
Q 3803 3938 3442 4084 
Q 3081 4231 2675 4231 
Q 1875 4231 1450 3742 
Q 1025 3253 1025 2328 
Q 1025 1406 1450 917 
Q 1875 428 2675 428 
Q 3081 428 3442 575 
Q 3803 722 4122 1019 
L 4122 359 
Q 3791 134 3420 21 
Q 3050 -91 2638 -91 
Q 1578 -91 968 557 
Q 359 1206 359 2328 
Q 359 3453 968 4101 
Q 1578 4750 2638 4750 
Q 3056 4750 3426 4639 
Q 3797 4528 4122 4306 
z
" transform="scale(0.015625)"/>
      <path id="DejaVuSans-76" d="M 191 3500 
L 800 3500 
L 1894 563 
L 2988 3500 
L 3597 3500 
L 2284 0 
L 1503 0 
L 191 3500 
z
" transform="scale(0.015625)"/>
     </defs>
     <use xlink:href="#DejaVuSans-43"/>
     <use xlink:href="#DejaVuSans-6f" x="69.824219"/>
     <use xlink:href="#DejaVuSans-73" x="131.005859"/>
     <use xlink:href="#DejaVuSans-67" x="183.105469"/>
     <use xlink:href="#DejaVuSans-72" x="246.582031"/>
     <use xlink:href="#DejaVuSans-6f" x="285.445312"/>
     <use xlink:href="#DejaVuSans-76" x="346.626953"/>
     <use xlink:href="#DejaVuSans-65" x="405.806641"/>
    </g>
   </g>
   <g id="text_30">
    <!-- Pine_Island -->
    <g transform="translate(237.72786 290.283197)scale(0.1 -0.1)">
     <defs>
      <path id="DejaVuSans-50" d="M 1259 4147 
L 1259 2394 
L 2053 2394 
Q 2494 2394 2734 2622 
Q 2975 2850 2975 3272 
Q 2975 3691 2734 3919 
Q 2494 4147 2053 4147 
L 1259 4147 
z
M 628 4666 
L 2053 4666 
Q 2838 4666 3239 4311 
Q 3641 3956 3641 3272 
Q 3641 2581 3239 2228 
Q 2838 1875 2053 1875 
L 1259 1875 
L 1259 0 
L 628 0 
L 628 4666 
z
" transform="scale(0.015625)"/>
      <path id="DejaVuSans-64" d="M 2906 2969 
L 2906 4863 
L 3481 4863 
L 3481 0 
L 2906 0 
L 2906 525 
Q 2725 213 2448 61 
Q 2172 -91 1784 -91 
Q 1150 -91 751 415 
Q 353 922 353 1747 
Q 353 2572 751 3078 
Q 1150 3584 1784 3584 
Q 2172 3584 2448 3432 
Q 2725 3281 2906 2969 
z
M 947 1747 
Q 947 1113 1208 752 
Q 1469 391 1925 391 
Q 2381 391 2643 752 
Q 2906 1113 2906 1747 
Q 2906 2381 2643 2742 
Q 2381 3103 1925 3103 
Q 1469 3103 1208 2742 
Q 947 2381 947 1747 
z
" transform="scale(0.015625)"/>
     </defs>
     <use xlink:href="#DejaVuSans-50"/>
     <use xlink:href="#DejaVuSans-69" x="58.052734"/>
     <use xlink:href="#DejaVuSans-6e" x="85.835938"/>
     <use xlink:href="#DejaVuSans-65" x="149.214844"/>
     <use xlink:href="#DejaVuSans-5f" x="210.738281"/>
     <use xlink:href="#DejaVuSans-49" x="260.738281"/>
     <use xlink:href="#DejaVuSans-73" x="290.230469"/>
     <use xlink:href="#DejaVuSans-6c" x="342.330078"/>
     <use xlink:href="#DejaVuSans-61" x="370.113281"/>
     <use xlink:href="#DejaVuSans-6e" x="431.392578"/>
     <use xlink:href="#DejaVuSans-64" x="494.771484"/>
    </g>
   </g>
   <g id="text_31">
    <!-- Thwaites -->
    <g transform="translate(433.101056 120.382768)scale(0.1 -0.1)">
     <defs>
      <path id="DejaVuSans-54" d="M -19 4666 
L 3928 4666 
L 3928 4134 
L 2272 4134 
L 2272 0 
L 1638 0 
L 1638 4134 
L -19 4134 
L -19 4666 
z
" transform="scale(0.015625)"/>
      <path id="DejaVuSans-77" d="M 269 3500 
L 844 3500 
L 1563 769 
L 2278 3500 
L 2956 3500 
L 3675 769 
L 4391 3500 
L 4966 3500 
L 4050 0 
L 3372 0 
L 2619 2869 
L 1863 0 
L 1184 0 
L 269 3500 
z
" transform="scale(0.015625)"/>
     </defs>
     <use xlink:href="#DejaVuSans-54"/>
     <use xlink:href="#DejaVuSans-68" x="61.083984"/>
     <use xlink:href="#DejaVuSans-77" x="124.462891"/>
     <use xlink:href="#DejaVuSans-61" x="206.25"/>
     <use xlink:href="#DejaVuSans-69" x="267.529297"/>
     <use xlink:href="#DejaVuSans-74" x="295.3125"/>
     <use xlink:href="#DejaVuSans-65" x="334.521484"/>
     <use xlink:href="#DejaVuSans-73" x="396.044922"/>
    </g>
   </g>
   <g id="text_32">
    <!-- Crosson -->
    <g transform="translate(265.582644 373.226714)scale(0.1 -0.1)">
     <use xlink:href="#DejaVuSans-43"/>
     <use xlink:href="#DejaVuSans-72" x="69.824219"/>
     <use xlink:href="#DejaVuSans-6f" x="108.6875"/>
     <use xlink:href="#DejaVuSans-73" x="169.869141"/>
     <use xlink:href="#DejaVuSans-73" x="221.96875"/>
     <use xlink:href="#DejaVuSans-6f" x="274.068359"/>
     <use xlink:href="#DejaVuSans-6e" x="335.25"/>
    </g>
   </g>
   <g id="text_33">
    <!-- Dotson -->
    <g transform="translate(228.851746 405.333882)scale(0.1 -0.1)">
     <defs>
      <path id="DejaVuSans-44" d="M 1259 4147 
L 1259 519 
L 2022 519 
Q 2988 519 3436 956 
Q 3884 1394 3884 2338 
Q 3884 3275 3436 3711 
Q 2988 4147 2022 4147 
L 1259 4147 
z
M 628 4666 
L 1925 4666 
Q 3281 4666 3915 4102 
Q 4550 3538 4550 2338 
Q 4550 1131 3912 565 
Q 3275 0 1925 0 
L 628 0 
L 628 4666 
z
" transform="scale(0.015625)"/>
     </defs>
     <use xlink:href="#DejaVuSans-44"/>
     <use xlink:href="#DejaVuSans-6f" x="77.001953"/>
     <use xlink:href="#DejaVuSans-74" x="138.183594"/>
     <use xlink:href="#DejaVuSans-73" x="177.392578"/>
     <use xlink:href="#DejaVuSans-6f" x="229.492188"/>
     <use xlink:href="#DejaVuSans-6e" x="290.673828"/>
    </g>
   </g>
   <g id="text_34">
    <!-- Getz -->
    <g transform="translate(169.231759 421.387466)scale(0.1 -0.1)">
     <defs>
      <path id="DejaVuSans-7a" d="M 353 3500 
L 3084 3500 
L 3084 2975 
L 922 459 
L 3084 459 
L 3084 0 
L 275 0 
L 275 525 
L 2438 3041 
L 353 3041 
L 353 3500 
z
" transform="scale(0.015625)"/>
     </defs>
     <use xlink:href="#DejaVuSans-47"/>
     <use xlink:href="#DejaVuSans-65" x="77.490234"/>
     <use xlink:href="#DejaVuSans-74" x="139.013672"/>
     <use xlink:href="#DejaVuSans-7a" x="178.222656"/>
    </g>
   </g>
   <g id="text_35">
    <!-- Land -->
    <g transform="translate(372.454232 204.664083)scale(0.1 -0.1)">
     <use xlink:href="#DejaVuSans-4c"/>
     <use xlink:href="#DejaVuSans-61" x="55.712891"/>
     <use xlink:href="#DejaVuSans-6e" x="116.992188"/>
     <use xlink:href="#DejaVuSans-64" x="180.371094"/>
    </g>
   </g>
   <g id="text_36">
    <!-- Nickerson -->
    <g transform="translate(128.02825 461.521426)scale(0.1 -0.1)">
     <defs>
      <path id="DejaVuSans-4e" d="M 628 4666 
L 1478 4666 
L 3547 763 
L 3547 4666 
L 4159 4666 
L 4159 0 
L 3309 0 
L 1241 3903 
L 1241 0 
L 628 0 
L 628 4666 
z
" transform="scale(0.015625)"/>
     </defs>
     <use xlink:href="#DejaVuSans-4e"/>
     <use xlink:href="#DejaVuSans-69" x="74.804688"/>
     <use xlink:href="#DejaVuSans-63" x="102.587891"/>
     <use xlink:href="#DejaVuSans-6b" x="157.568359"/>
     <use xlink:href="#DejaVuSans-65" x="211.853516"/>
     <use xlink:href="#DejaVuSans-72" x="273.376953"/>
     <use xlink:href="#DejaVuSans-73" x="314.490234"/>
     <use xlink:href="#DejaVuSans-6f" x="366.589844"/>
     <use xlink:href="#DejaVuSans-6e" x="427.771484"/>
    </g>
   </g>
   <g id="text_37">
    <!-- Sulzberger -->
    <g transform="translate(102.395497 457.50803)scale(0.1 -0.1)">
     <use xlink:href="#DejaVuSans-53"/>
     <use xlink:href="#DejaVuSans-75" x="63.476562"/>
     <use xlink:href="#DejaVuSans-6c" x="126.855469"/>
     <use xlink:href="#DejaVuSans-7a" x="154.638672"/>
     <use xlink:href="#DejaVuSans-62" x="207.128906"/>
     <use xlink:href="#DejaVuSans-65" x="270.605469"/>
     <use xlink:href="#DejaVuSans-72" x="332.128906"/>
     <use xlink:href="#DejaVuSans-67" x="371.492188"/>
     <use xlink:href="#DejaVuSans-65" x="434.96875"/>
     <use xlink:href="#DejaVuSans-72" x="496.492188"/>
    </g>
   </g>
   <g id="text_38">
    <!-- Withrow -->
    <g transform="translate(102.459124 433.427654)scale(0.1 -0.1)">
     <use xlink:href="#DejaVuSans-57"/>
     <use xlink:href="#DejaVuSans-69" x="96.626953"/>
     <use xlink:href="#DejaVuSans-74" x="124.410156"/>
     <use xlink:href="#DejaVuSans-68" x="163.619141"/>
     <use xlink:href="#DejaVuSans-72" x="226.998047"/>
     <use xlink:href="#DejaVuSans-6f" x="265.861328"/>
     <use xlink:href="#DejaVuSans-77" x="327.042969"/>
    </g>
   </g>
   <g id="text_39">
    <!-- Ross_West -->
    <g transform="translate(111.375074 473.561613)scale(0.1 -0.1)">
     <use xlink:href="#DejaVuSans-52"/>
     <use xlink:href="#DejaVuSans-6f" x="64.982422"/>
     <use xlink:href="#DejaVuSans-73" x="126.164062"/>
     <use xlink:href="#DejaVuSans-73" x="178.263672"/>
     <use xlink:href="#DejaVuSans-5f" x="230.363281"/>
     <use xlink:href="#DejaVuSans-57" x="280.363281"/>
     <use xlink:href="#DejaVuSans-65" x="373.365234"/>
     <use xlink:href="#DejaVuSans-73" x="434.888672"/>
     <use xlink:href="#DejaVuSans-74" x="486.988281"/>
    </g>
   </g>
   <g id="text_40">
    <!-- Ross_East -->
    <g transform="translate(105.210678 473.561613)scale(0.1 -0.1)">
     <use xlink:href="#DejaVuSans-52"/>
     <use xlink:href="#DejaVuSans-6f" x="64.982422"/>
     <use xlink:href="#DejaVuSans-73" x="126.164062"/>
     <use xlink:href="#DejaVuSans-73" x="178.263672"/>
     <use xlink:href="#DejaVuSans-5f" x="230.363281"/>
     <use xlink:href="#DejaVuSans-45" x="280.363281"/>
     <use xlink:href="#DejaVuSans-61" x="343.546875"/>
     <use xlink:href="#DejaVuSans-73" x="404.826172"/>
     <use xlink:href="#DejaVuSans-74" x="456.925781"/>
    </g>
   </g>
   <g id="text_41">
    <!-- Drygalski -->
    <g transform="translate(185.130112 452.156835)scale(0.1 -0.1)">
     <defs>
      <path id="DejaVuSans-79" d="M 2059 -325 
Q 1816 -950 1584 -1140 
Q 1353 -1331 966 -1331 
L 506 -1331 
L 506 -850 
L 844 -850 
Q 1081 -850 1212 -737 
Q 1344 -625 1503 -206 
L 1606 56 
L 191 3500 
L 800 3500 
L 1894 763 
L 2988 3500 
L 3597 3500 
L 2059 -325 
z
" transform="scale(0.015625)"/>
     </defs>
     <use xlink:href="#DejaVuSans-44"/>
     <use xlink:href="#DejaVuSans-72" x="77.001953"/>
     <use xlink:href="#DejaVuSans-79" x="118.115234"/>
     <use xlink:href="#DejaVuSans-67" x="177.294922"/>
     <use xlink:href="#DejaVuSans-61" x="240.771484"/>
     <use xlink:href="#DejaVuSans-6c" x="302.050781"/>
     <use xlink:href="#DejaVuSans-73" x="329.833984"/>
     <use xlink:href="#DejaVuSans-6b" x="381.933594"/>
     <use xlink:href="#DejaVuSans-69" x="439.84375"/>
    </g>
   </g>
   <g id="text_42">
    <!-- Nansen -->
    <g transform="translate(111.611947 456.170231)scale(0.1 -0.1)">
     <use xlink:href="#DejaVuSans-4e"/>
     <use xlink:href="#DejaVuSans-61" x="74.804688"/>
     <use xlink:href="#DejaVuSans-6e" x="136.083984"/>
     <use xlink:href="#DejaVuSans-73" x="199.462891"/>
     <use xlink:href="#DejaVuSans-65" x="251.5625"/>
     <use xlink:href="#DejaVuSans-6e" x="313.085938"/>
    </g>
   </g>
   <g id="text_43">
    <!-- Mariner -->
    <g transform="translate(119.315526 462.859224)scale(0.1 -0.1)">
     <defs>
      <path id="DejaVuSans-4d" d="M 628 4666 
L 1569 4666 
L 2759 1491 
L 3956 4666 
L 4897 4666 
L 4897 0 
L 4281 0 
L 4281 4097 
L 3078 897 
L 2444 897 
L 1241 4097 
L 1241 0 
L 628 0 
L 628 4666 
z
" transform="scale(0.015625)"/>
     </defs>
     <use xlink:href="#DejaVuSans-4d"/>
     <use xlink:href="#DejaVuSans-61" x="86.279297"/>
     <use xlink:href="#DejaVuSans-72" x="147.558594"/>
     <use xlink:href="#DejaVuSans-69" x="188.671875"/>
     <use xlink:href="#DejaVuSans-6e" x="216.455078"/>
     <use xlink:href="#DejaVuSans-65" x="279.833984"/>
     <use xlink:href="#DejaVuSans-72" x="341.357422"/>
    </g>
   </g>
   <g id="text_44">
    <!-- Rennick -->
    <g transform="translate(106.228073 452.156835)scale(0.1 -0.1)">
     <use xlink:href="#DejaVuSans-52"/>
     <use xlink:href="#DejaVuSans-65" x="64.982422"/>
     <use xlink:href="#DejaVuSans-6e" x="126.505859"/>
     <use xlink:href="#DejaVuSans-6e" x="189.884766"/>
     <use xlink:href="#DejaVuSans-69" x="253.263672"/>
     <use xlink:href="#DejaVuSans-63" x="281.046875"/>
     <use xlink:href="#DejaVuSans-6b" x="336.027344"/>
    </g>
   </g>
   <g id="text_45">
    <!-- Cook -->
    <g transform="translate(245.776434 460.183627)scale(0.1 -0.1)">
     <use xlink:href="#DejaVuSans-43"/>
     <use xlink:href="#DejaVuSans-6f" x="69.824219"/>
     <use xlink:href="#DejaVuSans-6f" x="131.005859"/>
     <use xlink:href="#DejaVuSans-6b" x="192.1875"/>
    </g>
   </g>
   <g id="text_46">
    <!-- Mertz -->
    <g transform="translate(199.298248 410.685077)scale(0.1 -0.1)">
     <use xlink:href="#DejaVuSans-4d"/>
     <use xlink:href="#DejaVuSans-65" x="86.279297"/>
     <use xlink:href="#DejaVuSans-72" x="147.802734"/>
     <use xlink:href="#DejaVuSans-74" x="188.916016"/>
     <use xlink:href="#DejaVuSans-7a" x="228.125"/>
    </g>
   </g>
   <g id="text_47">
    <!-- Totten -->
    <g transform="translate(270.215866 323.728164)scale(0.1 -0.1)">
     <use xlink:href="#DejaVuSans-54"/>
     <use xlink:href="#DejaVuSans-6f" x="44.083984"/>
     <use xlink:href="#DejaVuSans-74" x="105.265625"/>
     <use xlink:href="#DejaVuSans-74" x="144.474609"/>
     <use xlink:href="#DejaVuSans-65" x="183.683594"/>
     <use xlink:href="#DejaVuSans-6e" x="245.207031"/>
    </g>
   </g>
   <g id="text_48">
    <!-- Shackleton -->
    <g transform="translate(130.43757 453.494634)scale(0.1 -0.1)">
     <use xlink:href="#DejaVuSans-53"/>
     <use xlink:href="#DejaVuSans-68" x="63.476562"/>
     <use xlink:href="#DejaVuSans-61" x="126.855469"/>
     <use xlink:href="#DejaVuSans-63" x="188.134766"/>
     <use xlink:href="#DejaVuSans-6b" x="243.115234"/>
     <use xlink:href="#DejaVuSans-6c" x="301.025391"/>
     <use xlink:href="#DejaVuSans-65" x="328.808594"/>
     <use xlink:href="#DejaVuSans-74" x="390.332031"/>
     <use xlink:href="#DejaVuSans-6f" x="429.541016"/>
     <use xlink:href="#DejaVuSans-6e" x="490.722656"/>
    </g>
   </g>
   <g id="text_49">
    <!-- West -->
    <g transform="translate(123.125295 458.845828)scale(0.1 -0.1)">
     <use xlink:href="#DejaVuSans-57"/>
     <use xlink:href="#DejaVuSans-65" x="93.001953"/>
     <use xlink:href="#DejaVuSans-73" x="154.525391"/>
     <use xlink:href="#DejaVuSans-74" x="206.625"/>
    </g>
   </g>
   <g id="text_50">
    <!-- Abbot -->
    <g transform="translate(120.479114 457.50803)scale(0.1 -0.1)">
     <defs>
      <path id="DejaVuSans-41" d="M 2188 4044 
L 1331 1722 
L 3047 1722 
L 2188 4044 
z
M 1831 4666 
L 2547 4666 
L 4325 0 
L 3669 0 
L 3244 1197 
L 1141 1197 
L 716 0 
L 50 0 
L 1831 4666 
z
" transform="scale(0.015625)"/>
     </defs>
     <use xlink:href="#DejaVuSans-41"/>
     <use xlink:href="#DejaVuSans-62" x="68.408203"/>
     <use xlink:href="#DejaVuSans-62" x="131.884766"/>
     <use xlink:href="#DejaVuSans-6f" x="195.361328"/>
     <use xlink:href="#DejaVuSans-74" x="256.542969"/>
    </g>
   </g>
   <g id="text_51">
    <!-- Baudouin -->
    <g transform="translate(111.312275 464.197023)scale(0.1 -0.1)">
     <use xlink:href="#DejaVuSans-42"/>
     <use xlink:href="#DejaVuSans-61" x="68.603516"/>
     <use xlink:href="#DejaVuSans-75" x="129.882812"/>
     <use xlink:href="#DejaVuSans-64" x="193.261719"/>
     <use xlink:href="#DejaVuSans-6f" x="256.738281"/>
     <use xlink:href="#DejaVuSans-75" x="317.919922"/>
     <use xlink:href="#DejaVuSans-69" x="381.298828"/>
     <use xlink:href="#DejaVuSans-6e" x="409.082031"/>
    </g>
   </g>
   <g id="text_52">
    <!-- Borchgrevink -->
    <g transform="translate(132.187288 466.87262)scale(0.1 -0.1)">
     <use xlink:href="#DejaVuSans-42"/>
     <use xlink:href="#DejaVuSans-6f" x="68.603516"/>
     <use xlink:href="#DejaVuSans-72" x="129.785156"/>
     <use xlink:href="#DejaVuSans-63" x="168.648438"/>
     <use xlink:href="#DejaVuSans-68" x="223.628906"/>
     <use xlink:href="#DejaVuSans-67" x="287.007812"/>
     <use xlink:href="#DejaVuSans-72" x="350.484375"/>
     <use xlink:href="#DejaVuSans-65" x="389.347656"/>
     <use xlink:href="#DejaVuSans-76" x="450.871094"/>
     <use xlink:href="#DejaVuSans-69" x="510.050781"/>
     <use xlink:href="#DejaVuSans-6e" x="537.833984"/>
     <use xlink:href="#DejaVuSans-6b" x="601.212891"/>
    </g>
   </g>
   <g id="text_53">
    <!-- Lazarev -->
    <g transform="translate(117.497846 466.87262)scale(0.1 -0.1)">
     <use xlink:href="#DejaVuSans-4c"/>
     <use xlink:href="#DejaVuSans-61" x="55.712891"/>
     <use xlink:href="#DejaVuSans-7a" x="116.992188"/>
     <use xlink:href="#DejaVuSans-61" x="169.482422"/>
     <use xlink:href="#DejaVuSans-72" x="230.761719"/>
     <use xlink:href="#DejaVuSans-65" x="269.625"/>
     <use xlink:href="#DejaVuSans-76" x="331.148438"/>
    </g>
   </g>
   <g id="text_54">
    <!-- Fimbul -->
    <g transform="translate(123.962806 464.197023)scale(0.1 -0.1)">
     <use xlink:href="#DejaVuSans-46"/>
     <use xlink:href="#DejaVuSans-69" x="50.269531"/>
     <use xlink:href="#DejaVuSans-6d" x="78.052734"/>
     <use xlink:href="#DejaVuSans-62" x="175.464844"/>
     <use xlink:href="#DejaVuSans-75" x="238.941406"/>
     <use xlink:href="#DejaVuSans-6c" x="302.320312"/>
    </g>
   </g>
   <g id="text_55">
    <!-- Nivl -->
    <g transform="translate(110.84053 462.859224)scale(0.1 -0.1)">
     <use xlink:href="#DejaVuSans-4e"/>
     <use xlink:href="#DejaVuSans-69" x="74.804688"/>
     <use xlink:href="#DejaVuSans-76" x="102.587891"/>
     <use xlink:href="#DejaVuSans-6c" x="161.767578"/>
    </g>
   </g>
   <g id="text_56">
    <!-- Vigrid -->
    <g transform="translate(143.55337 461.521426)scale(0.1 -0.1)">
     <use xlink:href="#DejaVuSans-56"/>
     <use xlink:href="#DejaVuSans-69" x="66.158203"/>
     <use xlink:href="#DejaVuSans-67" x="93.941406"/>
     <use xlink:href="#DejaVuSans-72" x="157.417969"/>
     <use xlink:href="#DejaVuSans-69" x="198.53125"/>
     <use xlink:href="#DejaVuSans-64" x="226.314453"/>
    </g>
   </g>
   <g id="text_57">
    <!-- Atka -->
    <g transform="translate(106.877021 464.197023)scale(0.1 -0.1)">
     <use xlink:href="#DejaVuSans-41"/>
     <use xlink:href="#DejaVuSans-74" x="66.658203"/>
     <use xlink:href="#DejaVuSans-6b" x="105.867188"/>
     <use xlink:href="#DejaVuSans-61" x="162.027344"/>
    </g>
   </g>
   <g id="text_58">
    <!-- Jelbart -->
    <g transform="translate(119.362032 464.197023)scale(0.1 -0.1)">
     <defs>
      <path id="DejaVuSans-4a" d="M 628 4666 
L 1259 4666 
L 1259 325 
Q 1259 -519 939 -900 
Q 619 -1281 -91 -1281 
L -331 -1281 
L -331 -750 
L -134 -750 
Q 284 -750 456 -515 
Q 628 -281 628 325 
L 628 4666 
z
" transform="scale(0.015625)"/>
     </defs>
     <use xlink:href="#DejaVuSans-4a"/>
     <use xlink:href="#DejaVuSans-65" x="29.492188"/>
     <use xlink:href="#DejaVuSans-6c" x="91.015625"/>
     <use xlink:href="#DejaVuSans-62" x="118.798828"/>
     <use xlink:href="#DejaVuSans-61" x="182.275391"/>
     <use xlink:href="#DejaVuSans-72" x="243.554688"/>
     <use xlink:href="#DejaVuSans-74" x="284.667969"/>
    </g>
   </g>
   <g id="text_59">
    <!-- Holmes -->
    <g transform="translate(208.355263 299.647788)scale(0.1 -0.1)">
     <defs>
      <path id="DejaVuSans-48" d="M 628 4666 
L 1259 4666 
L 1259 2753 
L 3553 2753 
L 3553 4666 
L 4184 4666 
L 4184 0 
L 3553 0 
L 3553 2222 
L 1259 2222 
L 1259 0 
L 628 0 
L 628 4666 
z
" transform="scale(0.015625)"/>
     </defs>
     <use xlink:href="#DejaVuSans-48"/>
     <use xlink:href="#DejaVuSans-6f" x="75.195312"/>
     <use xlink:href="#DejaVuSans-6c" x="136.376953"/>
     <use xlink:href="#DejaVuSans-6d" x="164.160156"/>
     <use xlink:href="#DejaVuSans-65" x="261.572266"/>
     <use xlink:href="#DejaVuSans-73" x="323.095703"/>
    </g>
   </g>
   <g id="text_60">
    <!-- Moscow_University -->
    <g transform="translate(249.791443 378.577909)scale(0.1 -0.1)">
     <defs>
      <path id="DejaVuSans-55" d="M 556 4666 
L 1191 4666 
L 1191 1831 
Q 1191 1081 1462 751 
Q 1734 422 2344 422 
Q 2950 422 3222 751 
Q 3494 1081 3494 1831 
L 3494 4666 
L 4128 4666 
L 4128 1753 
Q 4128 841 3676 375 
Q 3225 -91 2344 -91 
Q 1459 -91 1007 375 
Q 556 841 556 1753 
L 556 4666 
z
" transform="scale(0.015625)"/>
     </defs>
     <use xlink:href="#DejaVuSans-4d"/>
     <use xlink:href="#DejaVuSans-6f" x="86.279297"/>
     <use xlink:href="#DejaVuSans-73" x="147.460938"/>
     <use xlink:href="#DejaVuSans-63" x="199.560547"/>
     <use xlink:href="#DejaVuSans-6f" x="254.541016"/>
     <use xlink:href="#DejaVuSans-77" x="315.722656"/>
     <use xlink:href="#DejaVuSans-5f" x="397.509766"/>
     <use xlink:href="#DejaVuSans-55" x="447.509766"/>
     <use xlink:href="#DejaVuSans-6e" x="520.703125"/>
     <use xlink:href="#DejaVuSans-69" x="584.082031"/>
     <use xlink:href="#DejaVuSans-76" x="611.865234"/>
     <use xlink:href="#DejaVuSans-65" x="671.044922"/>
     <use xlink:href="#DejaVuSans-72" x="732.568359"/>
     <use xlink:href="#DejaVuSans-73" x="773.681641"/>
     <use xlink:href="#DejaVuSans-69" x="825.78125"/>
     <use xlink:href="#DejaVuSans-74" x="853.564453"/>
     <use xlink:href="#DejaVuSans-79" x="892.773438"/>
    </g>
   </g>
   <g id="text_61">
    <!-- Prince_Harald -->
    <g transform="translate(108.816471 446.80564)scale(0.1 -0.1)">
     <use xlink:href="#DejaVuSans-50"/>
     <use xlink:href="#DejaVuSans-72" x="58.552734"/>
     <use xlink:href="#DejaVuSans-69" x="99.666016"/>
     <use xlink:href="#DejaVuSans-6e" x="127.449219"/>
     <use xlink:href="#DejaVuSans-63" x="190.828125"/>
     <use xlink:href="#DejaVuSans-65" x="245.808594"/>
     <use xlink:href="#DejaVuSans-5f" x="307.332031"/>
     <use xlink:href="#DejaVuSans-48" x="357.332031"/>
     <use xlink:href="#DejaVuSans-61" x="432.527344"/>
     <use xlink:href="#DejaVuSans-72" x="493.806641"/>
     <use xlink:href="#DejaVuSans-61" x="534.919922"/>
     <use xlink:href="#DejaVuSans-6c" x="596.199219"/>
     <use xlink:href="#DejaVuSans-64" x="623.982422"/>
    </g>
   </g>
  </g>
 </g>
 <defs>
  <clipPath id="p3ccf24adfb">
   <rect x="76.95" y="68.3424" width="477.09" height="438.5304"/>
  </clipPath>
 </defs>
</svg>
